<svg version="1.2" baseProfile="tiny-ps" xmlns="http://www.w3.org/2000/svg" viewBox="0 0 100 100" width="100" height="100">
	<title>GitHub-Mark-ai</title>
	<style>
		tspan { white-space:pre }
		.shp0 { fill: #181718 } 
		.shp1 { fill: none;stroke: #2286c3;stroke-linecap:round;stroke-width: 3 } 
		.shp2 { fill: none;stroke: #2286c3;stroke-linecap:round;stroke-width: 3;stroke-dasharray: 3,6 } 
		.shp3 { fill: #0073c0 } 
		.shp4 { fill: #ffffff } 
	</style>
	<g id="Layer 1">
		<path id="&lt;Path&gt;" class="shp0" d="M49.82 -826.64C22.84 -826.64 0.96 -804.76 0.96 -777.76C0.96 -756.18 14.96 -737.86 34.38 -731.4C36.82 -730.95 37.72 -732.46 37.72 -733.75C37.72 -734.91 37.67 -737.99 37.65 -742.06C28.59 -740.09 23.1 -742.28 21.19 -748.61C19.71 -752.38 17.9 -754.76 15.76 -755.76C12.8 -757.78 12.92 -758.77 16.1 -758.73C19.37 -758.5 21.86 -756.82 23.58 -753.7C27.94 -746.23 35.02 -748.39 37.81 -749.64C38.25 -752.79 39.51 -754.95 40.91 -756.17C30.06 -757.4 18.65 -761.6 18.65 -780.32C18.65 -785.66 20.55 -790.02 23.68 -793.44C23.18 -794.67 21.5 -799.64 24.16 -806.37C26.89 -807.24 31.37 -805.57 37.6 -801.36C41.49 -802.44 45.68 -802.98 49.83 -803C53.98 -802.98 58.16 -802.44 62.07 -801.36C68.29 -805.57 72.76 -807.24 75.49 -806.37C78.16 -799.64 76.48 -794.67 75.98 -793.44C79.11 -790.02 81 -785.66 81 -780.32C81 -761.55 69.57 -757.42 58.69 -756.21C60.44 -754.7 62.01 -751.72 62.01 -747.16C62.01 -740.62 61.95 -735.35 61.95 -733.75C61.95 -732.45 62.83 -730.92 65.31 -731.4C84.71 -737.88 98.7 -756.18 98.7 -777.76C98.7 -804.76 76.81 -826.64 49.82 -826.64Z" />
		<g id="&lt;Group&gt;">
			<path id="&lt;Path&gt;" class="shp0" d="M643.83 -973.66C543.79 -973.66 462.66 -892.56 462.66 -792.5C462.66 -712.46 514.57 -644.55 586.55 -620.6C595.61 -618.92 598.93 -624.53 598.93 -629.31C598.93 -633.63 598.76 -647.9 598.69 -663.04C565.09 -655.73 544.74 -662.86 537.65 -684.42C532.16 -698.37 525.45 -707.21 517.54 -710.92C506.58 -718.42 506.99 -722.09 518.78 -721.94C530.9 -721.08 540.16 -714.86 546.55 -703.27C562.7 -675.57 588.93 -683.58 599.27 -688.21C600.89 -699.91 605.59 -707.91 610.77 -712.43C570.53 -717.01 528.23 -732.55 528.23 -801.96C528.23 -821.74 535.31 -837.9 546.89 -850.59C545.01 -855.16 538.81 -873.58 548.65 -898.54C558.79 -901.78 575.4 -895.59 598.48 -879.96C612.93 -883.98 628.43 -885.99 643.83 -886.06C659.22 -885.99 674.73 -883.98 689.21 -879.96C712.26 -895.59 728.85 -901.78 738.98 -898.54C748.84 -873.58 742.64 -855.16 740.76 -850.59C752.37 -837.9 759.4 -821.74 759.4 -801.96C759.4 -732.38 717.02 -717.06 676.68 -712.58C683.18 -706.95 688.97 -695.93 688.97 -679.03C688.97 -654.79 688.76 -635.28 688.76 -629.31C688.76 -624.49 692.02 -618.84 701.2 -620.62C773.15 -644.6 824.99 -712.49 824.99 -792.5C824.99 -892.56 743.88 -973.66 643.83 -973.66Z" />
			<path id="&lt;Compound Path&gt;" class="shp0" d="M531.28 -713.55C530.88 -712.65 529.46 -712.38 528.17 -713C526.86 -713.59 526.12 -714.82 526.55 -715.72C526.94 -716.65 528.36 -716.91 529.67 -716.29C530.98 -715.7 531.73 -714.46 531.28 -713.55Z" />
			<path id="&lt;Compound Path&gt;" class="shp0" d="M538.62 -705.37C537.75 -704.57 536.06 -704.94 534.92 -706.21C533.73 -707.47 533.51 -709.16 534.39 -709.97C535.28 -710.77 536.92 -710.4 538.1 -709.13C539.29 -707.86 539.52 -706.18 538.62 -705.37Z" />
			<path id="&lt;Compound Path&gt;" class="shp0" d="M545.76 -694.94C544.65 -694.16 542.83 -694.89 541.71 -696.5C540.6 -698.11 540.6 -700.04 541.74 -700.82C542.86 -701.59 544.65 -700.89 545.79 -699.3C546.89 -697.66 546.89 -695.72 545.76 -694.94Z" />
			<path id="&lt;Compound Path&gt;" class="shp0" d="M555.55 -684.86C554.55 -683.76 552.44 -684.06 550.89 -685.55C549.31 -687.01 548.87 -689.08 549.86 -690.18C550.87 -691.27 552.99 -690.97 554.55 -689.48C556.13 -688.03 556.6 -685.94 555.55 -684.86Z" />
			<path id="&lt;Compound Path&gt;" class="shp0" d="M569.05 -679C568.61 -677.58 566.57 -676.94 564.52 -677.54C562.47 -678.16 561.13 -679.83 561.54 -681.26C561.97 -682.69 564.02 -683.36 566.08 -682.71C568.13 -682.1 569.47 -680.45 569.05 -679Z" />
			<path id="&lt;Compound Path&gt;" class="shp0" d="M583.87 -677.92C583.92 -676.42 582.18 -675.18 580.03 -675.16C577.86 -675.11 576.11 -676.32 576.09 -677.79C576.09 -679.3 577.79 -680.52 579.95 -680.56C582.11 -680.6 583.87 -679.4 583.87 -677.92Z" />
			<path id="&lt;Compound Path&gt;" class="shp0" d="M597.67 -680.26C597.93 -678.81 596.43 -677.31 594.29 -676.91C592.19 -676.53 590.24 -677.43 589.97 -678.87C589.71 -680.37 591.24 -681.86 593.34 -682.25C595.48 -682.62 597.4 -681.75 597.67 -680.26Z" />
		</g>
		<g id="&lt;Group&gt;">
			<g id="&lt;Group&gt;">
				<path id="&lt;Path&gt;" class="shp1" d="M266.69 -991.46L266.69 -989.96" />
				<path id="&lt;Path&gt;" class="shp2" d="M266.69 -983.96L266.69 -581.99" />
				<path id="&lt;Path&gt;" class="shp2" d="M266.69 -578.99L266.69 -577.49" />
			</g>
		</g>
		<g id="&lt;Group&gt;">
			<path id="&lt;Compound Path&gt;" class="shp3" d="M-8.17 -535.44C-9.31 -536.27 -10.77 -536.68 -12.55 -536.68C-13.27 -536.68 -13.97 -536.61 -14.67 -536.47C-15.37 -536.32 -15.98 -536.08 -16.52 -535.75C-17.06 -535.41 -17.5 -534.96 -17.82 -534.39C-18.15 -533.83 -18.31 -533.13 -18.31 -532.29C-18.31 -531.5 -18.07 -530.85 -17.6 -530.36C-17.14 -529.87 -16.51 -529.47 -15.73 -529.16C-14.95 -528.84 -14.07 -528.59 -13.09 -528.38C-12.1 -528.18 -11.1 -527.96 -10.08 -527.72C-9.06 -527.48 -8.06 -527.19 -7.08 -526.87C-6.09 -526.55 -5.21 -526.11 -4.43 -525.56C-3.65 -525.01 -3.02 -524.31 -2.56 -523.47C-2.09 -522.63 -1.85 -521.57 -1.85 -520.3C-1.85 -518.93 -2.16 -517.76 -2.77 -516.79C-3.39 -515.82 -4.17 -515.03 -5.13 -514.41C-6.09 -513.8 -7.16 -513.36 -8.35 -513.08C-9.54 -512.81 -10.72 -512.67 -11.9 -512.67C-13.34 -512.67 -14.7 -512.85 -15.98 -513.21C-17.27 -513.57 -18.4 -514.11 -19.37 -514.85C-20.34 -515.58 -21.11 -516.52 -21.67 -517.66C-22.24 -518.79 -22.52 -520.14 -22.52 -521.7L-19.28 -521.7C-19.28 -520.62 -19.07 -519.69 -18.65 -518.91C-18.23 -518.13 -17.68 -517.49 -16.99 -516.99C-16.31 -516.49 -15.51 -516.11 -14.6 -515.87C-13.69 -515.63 -12.75 -515.51 -11.79 -515.51C-11.02 -515.51 -10.25 -515.58 -9.47 -515.73C-8.69 -515.87 -7.99 -516.12 -7.36 -516.47C-6.74 -516.81 -6.23 -517.29 -5.85 -517.89C-5.47 -518.49 -5.27 -519.26 -5.27 -520.19C-5.27 -521.08 -5.51 -521.8 -5.98 -522.35C-6.45 -522.9 -7.07 -523.35 -7.85 -523.7C-8.63 -524.05 -9.51 -524.33 -10.49 -524.55C-11.48 -524.77 -12.48 -524.99 -13.5 -525.22C-14.52 -525.44 -15.52 -525.71 -16.51 -526.01C-17.49 -526.31 -18.37 -526.7 -19.15 -527.19C-19.93 -527.69 -20.56 -528.32 -21.02 -529.1C-21.49 -529.88 -21.73 -530.86 -21.73 -532.04C-21.73 -533.33 -21.46 -534.45 -20.93 -535.4C-20.41 -536.35 -19.71 -537.13 -18.83 -537.74C-17.95 -538.35 -16.96 -538.81 -15.84 -539.11C-14.72 -539.41 -13.58 -539.56 -12.4 -539.56C-11.08 -539.56 -9.86 -539.4 -8.73 -539.09C-7.6 -538.78 -6.61 -538.29 -5.76 -537.61C-4.91 -536.94 -4.24 -536.1 -3.74 -535.08C-3.25 -534.06 -2.98 -532.84 -2.93 -531.42L-6.17 -531.42C-6.37 -533.27 -7.03 -534.61 -8.17 -535.44Z" />
			<path id="&lt;Compound Path&gt;" class="shp3" d="M4.66 -531.86L4.66 -529.12L4.73 -529.12C6.12 -531.23 8.13 -532.29 10.74 -532.29C11.9 -532.29 12.94 -532.05 13.88 -531.57C14.81 -531.09 15.47 -530.27 15.86 -529.12C16.48 -530.13 17.3 -530.91 18.32 -531.46C19.34 -532.01 20.47 -532.29 21.69 -532.29C22.62 -532.29 23.47 -532.19 24.23 -531.98C24.98 -531.78 25.63 -531.46 26.17 -531.03C26.71 -530.6 27.13 -530.04 27.43 -529.35C27.73 -528.67 27.88 -527.85 27.88 -526.89L27.88 -513.25L24.82 -513.25L24.82 -525.45C24.82 -526.03 24.77 -526.56 24.68 -527.07C24.58 -527.57 24.4 -528.01 24.14 -528.38C23.87 -528.76 23.51 -529.05 23.04 -529.27C22.57 -529.48 21.97 -529.59 21.22 -529.59C19.71 -529.59 18.52 -529.16 17.66 -528.29C16.79 -527.43 16.36 -526.28 16.36 -524.84L16.36 -513.25L13.3 -513.25L13.3 -525.45C13.3 -526.05 13.25 -526.6 13.14 -527.1C13.03 -527.61 12.85 -528.05 12.58 -528.42C12.32 -528.79 11.96 -529.08 11.52 -529.28C11.07 -529.49 10.5 -529.59 9.81 -529.59C8.92 -529.59 8.16 -529.41 7.52 -529.05C6.89 -528.69 6.37 -528.26 5.98 -527.75C5.58 -527.25 5.29 -526.73 5.11 -526.19C4.93 -525.64 4.84 -525.2 4.84 -524.84L4.84 -513.25L1.78 -513.25L1.78 -531.86L4.66 -531.86Z" />
			<path id="&lt;Compound Path&gt;" fill-rule="evenodd" class="shp3" d="M46.78 -512.85C45.99 -512.85 45.36 -513.07 44.89 -513.52C44.42 -513.96 44.19 -514.68 44.19 -515.69C43.35 -514.68 42.37 -513.96 41.25 -513.52C40.14 -513.07 38.93 -512.85 37.64 -512.85C36.8 -512.85 36 -512.94 35.26 -513.12C34.52 -513.3 33.86 -513.6 33.3 -514.02C32.73 -514.44 32.29 -514.98 31.97 -515.64C31.64 -516.3 31.48 -517.1 31.48 -518.03C31.48 -519.09 31.66 -519.95 32.02 -520.62C32.38 -521.3 32.85 -521.84 33.44 -522.26C34.03 -522.68 34.7 -523 35.46 -523.22C36.21 -523.43 36.99 -523.61 37.78 -523.76C38.62 -523.92 39.42 -524.05 40.17 -524.13C40.93 -524.22 41.6 -524.34 42.17 -524.5C42.75 -524.65 43.2 -524.88 43.54 -525.18C43.88 -525.48 44.04 -525.92 44.04 -526.49C44.04 -527.16 43.92 -527.7 43.67 -528.11C43.41 -528.52 43.09 -528.83 42.69 -529.05C42.3 -529.27 41.85 -529.41 41.36 -529.48C40.87 -529.55 40.38 -529.59 39.91 -529.59C38.61 -529.59 37.53 -529.34 36.66 -528.85C35.8 -528.36 35.33 -527.43 35.26 -526.06L32.2 -526.06C32.25 -527.21 32.49 -528.18 32.92 -528.98C33.35 -529.77 33.93 -530.41 34.65 -530.9C35.37 -531.39 36.2 -531.75 37.13 -531.97C38.07 -532.18 39.05 -532.29 40.08 -532.29C40.92 -532.29 41.76 -532.23 42.59 -532.11C43.41 -531.99 44.16 -531.74 44.84 -531.37C45.51 -531 46.05 -530.48 46.46 -529.8C46.86 -529.13 47.07 -528.26 47.07 -527.18L47.07 -517.6C47.07 -516.88 47.11 -516.35 47.19 -516.02C47.28 -515.68 47.56 -515.51 48.04 -515.51C48.3 -515.51 48.62 -515.57 48.98 -515.69L48.98 -513.32C48.45 -513.01 47.72 -512.85 46.78 -512.85ZM42.5 -522.23C41.87 -522.09 41.22 -521.99 40.54 -521.9C39.85 -521.82 39.16 -521.72 38.46 -521.61C37.77 -521.51 37.14 -521.33 36.59 -521.09C36.04 -520.85 35.59 -520.51 35.24 -520.07C34.89 -519.62 34.72 -519.02 34.72 -518.25C34.72 -517.75 34.82 -517.32 35.03 -516.97C35.23 -516.62 35.49 -516.34 35.82 -516.12C36.14 -515.91 36.53 -515.75 36.97 -515.66C37.41 -515.56 37.86 -515.51 38.32 -515.51C39.33 -515.51 40.19 -515.65 40.91 -515.93C41.63 -516.2 42.22 -516.55 42.68 -516.97C43.13 -517.39 43.47 -517.85 43.68 -518.34C43.9 -518.83 44.01 -519.29 44.01 -519.73L44.01 -522.86C43.62 -522.57 43.12 -522.36 42.5 -522.23Z" />
			<path id="&lt;Compound Path&gt;" class="shp3" d="M55.06 -538.95L55.06 -513.25L52 -513.25L52 -538.95L55.06 -538.95Z" />
			<path id="&lt;Compound Path&gt;" class="shp3" d="M63.05 -538.95L63.05 -513.25L59.99 -513.25L59.99 -538.95L63.05 -538.95Z" />
			<path id="&lt;Compound Path&gt;" class="shp3" d="M-102.44 -485.96L-102.44 -488.66L-99.31 -488.66L-99.31 -491.43C-99.31 -492.94 -98.87 -494.09 -97.99 -494.86C-97.12 -495.64 -95.84 -496.04 -94.16 -496.04C-93.87 -496.04 -93.54 -496.01 -93.17 -495.97C-92.8 -495.92 -92.47 -495.84 -92.18 -495.75L-92.18 -493.08C-92.44 -493.18 -92.73 -493.25 -93.04 -493.28C-93.35 -493.32 -93.64 -493.34 -93.91 -493.34C-94.65 -493.34 -95.23 -493.19 -95.63 -492.91C-96.04 -492.61 -96.25 -492.06 -96.25 -491.25L-96.25 -488.66L-92.65 -488.66L-92.65 -485.96L-96.25 -485.96L-96.25 -470.04L-99.31 -470.04L-99.31 -485.96L-102.44 -485.96Z" />
			<path id="&lt;Compound Path&gt;" fill-rule="evenodd" class="shp3" d="M-90.34 -483.17C-89.96 -484.35 -89.38 -485.38 -88.61 -486.26C-87.85 -487.14 -86.9 -487.83 -85.77 -488.33C-84.64 -488.84 -83.35 -489.09 -81.88 -489.09C-80.4 -489.09 -79.09 -488.84 -77.98 -488.33C-76.86 -487.83 -75.92 -487.14 -75.15 -486.26C-74.38 -485.38 -73.81 -484.35 -73.42 -483.17C-73.04 -481.98 -72.85 -480.7 -72.85 -479.33C-72.85 -477.97 -73.04 -476.69 -73.42 -475.52C-73.81 -474.34 -74.38 -473.31 -75.15 -472.44C-75.92 -471.56 -76.86 -470.88 -77.98 -470.38C-79.09 -469.9 -80.4 -469.65 -81.88 -469.65C-83.35 -469.65 -84.64 -469.9 -85.77 -470.38C-86.9 -470.88 -87.85 -471.56 -88.61 -472.44C-89.38 -473.31 -89.96 -474.34 -90.34 -475.52C-90.73 -476.69 -90.92 -477.97 -90.92 -479.33C-90.92 -480.7 -90.73 -481.98 -90.34 -483.17ZM-87.23 -476.33C-86.93 -475.45 -86.52 -474.72 -85.99 -474.13C-85.46 -473.54 -84.84 -473.09 -84.13 -472.78C-83.43 -472.47 -82.67 -472.31 -81.88 -472.31C-81.09 -472.31 -80.34 -472.47 -79.63 -472.78C-78.93 -473.09 -78.31 -473.54 -77.78 -474.13C-77.25 -474.72 -76.84 -475.45 -76.54 -476.33C-76.24 -477.2 -76.09 -478.2 -76.09 -479.33C-76.09 -480.46 -76.24 -481.46 -76.54 -482.34C-76.84 -483.22 -77.25 -483.95 -77.78 -484.55C-78.31 -485.15 -78.93 -485.61 -79.63 -485.92C-80.34 -486.23 -81.09 -486.39 -81.88 -486.39C-82.67 -486.39 -83.43 -486.23 -84.13 -485.92C-84.84 -485.61 -85.46 -485.15 -85.99 -484.55C-86.52 -483.95 -86.93 -483.22 -87.23 -482.34C-87.53 -481.46 -87.68 -480.46 -87.68 -479.33C-87.68 -478.2 -87.53 -477.2 -87.23 -476.33Z" />
			<path id="&lt;Compound Path&gt;" class="shp3" d="M-66.47 -488.66L-66.47 -484.73L-66.4 -484.73C-65.66 -486.25 -64.75 -487.36 -63.67 -488.08C-62.59 -488.8 -61.22 -489.13 -59.56 -489.09L-59.56 -485.85C-60.79 -485.85 -61.83 -485.68 -62.69 -485.34C-63.56 -485.01 -64.26 -484.52 -64.78 -483.87C-65.31 -483.22 -65.7 -482.43 -65.93 -481.51C-66.17 -480.59 -66.29 -479.53 -66.29 -478.32L-66.29 -470.04L-69.35 -470.04L-69.35 -488.66L-66.47 -488.66Z" />
			<path id="&lt;Compound Path&gt;" class="shp3" d="M-39.8 -470.04L-39.8 -488.33L-46.42 -488.33L-46.42 -490.78C-45.56 -490.78 -44.72 -490.85 -43.9 -490.98C-43.09 -491.11 -42.35 -491.36 -41.69 -491.72C-41.03 -492.08 -40.47 -492.57 -40.02 -493.19C-39.56 -493.82 -39.25 -494.61 -39.08 -495.57L-36.74 -495.57L-36.74 -470.04L-39.8 -470.04Z" />
			<path id="&lt;Compound Path&gt;" fill-rule="evenodd" class="shp3" d="M-15.97 -491.82C-16.71 -492.52 -17.69 -492.87 -18.92 -492.87C-20.21 -492.87 -21.26 -492.55 -22.05 -491.91C-22.84 -491.28 -23.46 -490.48 -23.9 -489.5C-24.35 -488.53 -24.65 -487.48 -24.82 -486.35C-24.99 -485.23 -25.09 -484.17 -25.11 -483.18L-25.04 -483.11C-24.32 -484.29 -23.42 -485.14 -22.36 -485.67C-21.29 -486.2 -20.06 -486.46 -18.67 -486.46C-17.44 -486.46 -16.34 -486.25 -15.37 -485.83C-14.4 -485.41 -13.59 -484.83 -12.92 -484.08C-12.27 -483.34 -11.75 -482.47 -11.4 -481.46C-11.03 -480.45 -10.85 -479.36 -10.85 -478.18C-10.85 -477.25 -11 -476.27 -11.29 -475.27C-11.58 -474.26 -12.05 -473.34 -12.71 -472.51C-13.37 -471.68 -14.24 -471 -15.34 -470.46C-16.43 -469.92 -17.78 -469.65 -19.39 -469.65C-21.28 -469.65 -22.81 -470.03 -23.96 -470.8C-25.11 -471.57 -26 -472.55 -26.62 -473.75C-27.25 -474.95 -27.66 -476.27 -27.86 -477.71C-28.07 -479.15 -28.17 -480.54 -28.17 -481.89C-28.17 -483.64 -28.02 -485.34 -27.72 -486.98C-27.42 -488.62 -26.91 -490.08 -26.19 -491.36C-25.47 -492.63 -24.51 -493.65 -23.31 -494.42C-22.11 -495.18 -20.6 -495.57 -18.77 -495.57C-16.66 -495.57 -14.98 -495.01 -13.73 -493.9C-12.49 -492.78 -11.77 -491.16 -11.58 -489.05L-14.64 -489.05C-14.78 -490.21 -15.22 -491.13 -15.97 -491.82ZM-21.51 -483.31C-22.16 -483.01 -22.71 -482.6 -23.17 -482.09C-23.62 -481.57 -23.96 -480.96 -24.19 -480.25C-24.42 -479.54 -24.53 -478.79 -24.53 -478C-24.53 -477.21 -24.41 -476.47 -24.17 -475.77C-23.94 -475.07 -23.59 -474.47 -23.15 -473.97C-22.71 -473.47 -22.15 -473.06 -21.49 -472.76C-20.83 -472.46 -20.08 -472.31 -19.24 -472.31C-18.4 -472.31 -17.66 -472.46 -17.03 -472.76C-16.39 -473.06 -15.86 -473.48 -15.43 -474.01C-14.99 -474.53 -14.66 -475.14 -14.44 -475.82C-14.21 -476.51 -14.09 -477.22 -14.09 -477.97C-14.09 -478.76 -14.2 -479.51 -14.4 -480.22C-14.6 -480.92 -14.92 -481.54 -15.35 -482.05C-15.79 -482.57 -16.33 -482.98 -16.97 -483.29C-17.62 -483.6 -18.38 -483.76 -19.24 -483.76C-20.11 -483.76 -20.86 -483.61 -21.51 -483.31Z" />
			<path id="&lt;Compound Path&gt;" fill-rule="evenodd" class="shp3" d="M-4.05 -488.66L-4.05 -486.13L-3.98 -486.13C-3.47 -487.17 -2.68 -487.92 -1.6 -488.38C-0.52 -488.85 0.66 -489.09 1.96 -489.09C3.4 -489.09 4.66 -488.82 5.72 -488.3C6.79 -487.77 7.68 -487.05 8.39 -486.16C9.1 -485.26 9.63 -484.22 9.99 -483.04C10.35 -481.86 10.53 -480.61 10.53 -479.3C10.53 -477.98 10.35 -476.73 10.01 -475.55C9.66 -474.37 9.13 -473.35 8.42 -472.48C7.72 -471.6 6.83 -470.91 5.76 -470.41C4.69 -469.9 3.45 -469.65 2.03 -469.65C1.58 -469.65 1.07 -469.7 0.5 -469.79C-0.06 -469.89 -0.62 -470.04 -1.17 -470.26C-1.72 -470.48 -2.25 -470.77 -2.74 -471.14C-3.23 -471.52 -3.64 -471.98 -3.98 -472.53L-4.05 -472.53L-4.05 -462.95L-7.11 -462.95L-7.11 -488.66L-4.05 -488.66ZM6.95 -482.05C6.72 -482.88 6.37 -483.61 5.9 -484.27C5.43 -484.91 4.84 -485.43 4.1 -485.81C3.37 -486.2 2.51 -486.39 1.53 -486.39C0.5 -486.39 -0.38 -486.18 -1.1 -485.78C-1.82 -485.37 -2.41 -484.83 -2.86 -484.17C-3.32 -483.52 -3.65 -482.77 -3.85 -481.92C-4.06 -481.08 -4.16 -480.23 -4.16 -479.37C-4.16 -478.46 -4.05 -477.57 -3.84 -476.72C-3.62 -475.87 -3.28 -475.12 -2.81 -474.47C-2.34 -473.82 -1.74 -473.3 -0.99 -472.91C-0.25 -472.51 0.65 -472.31 1.71 -472.31C2.76 -472.31 3.65 -472.52 4.35 -472.92C5.06 -473.33 5.63 -473.87 6.06 -474.54C6.5 -475.22 6.81 -475.99 7 -476.85C7.19 -477.71 7.29 -478.6 7.29 -479.51C7.29 -480.37 7.17 -481.22 6.95 -482.05Z" />
			<path id="&lt;Compound Path&gt;" class="shp3" d="M12.65 -488.66L16.58 -488.66L21.04 -482.14L25.68 -488.66L29.36 -488.66L22.95 -480.09L30.15 -470.04L26.22 -470.04L21.04 -477.75L15.86 -470.04L12.15 -470.04L19.13 -479.84L12.65 -488.66Z" />
			<path id="&lt;Compound Path&gt;" class="shp3" d="M42.68 -481.49L42.68 -478.61L32.27 -478.61L32.27 -481.49L42.68 -481.49Z" />
			<path id="&lt;Compound Path&gt;" class="shp3" d="M54.23 -470.04L54.23 -488.33L47.61 -488.33L47.61 -490.78C48.47 -490.78 49.31 -490.85 50.13 -490.98C50.94 -491.11 51.68 -491.36 52.34 -491.72C53 -492.08 53.56 -492.57 54.02 -493.19C54.47 -493.82 54.78 -494.61 54.95 -495.57L57.29 -495.57L57.29 -470.04L54.23 -470.04Z" />
			<path id="&lt;Compound Path&gt;" class="shp3" d="M66.47 -490.13C66.81 -491.24 67.33 -492.19 68.04 -493C68.75 -493.8 69.63 -494.43 70.68 -494.88C71.74 -495.34 72.94 -495.57 74.28 -495.57C75.39 -495.57 76.43 -495.41 77.4 -495.08C78.37 -494.76 79.22 -494.29 79.93 -493.68C80.66 -493.07 81.23 -492.3 81.64 -491.39C82.06 -490.48 82.28 -489.42 82.28 -488.23C82.28 -487.1 82.1 -486.1 81.75 -485.24C81.4 -484.37 80.94 -483.6 80.37 -482.91C79.79 -482.23 79.13 -481.61 78.39 -481.06C77.64 -480.51 76.88 -479.98 76.08 -479.48C75.29 -479 74.5 -478.52 73.71 -478.05C72.92 -477.59 72.19 -477.09 71.53 -476.56C70.87 -476.03 70.31 -475.46 69.84 -474.85C69.37 -474.24 69.06 -473.54 68.92 -472.75L82.02 -472.75L82.02 -470.04L65.36 -470.04C65.48 -471.56 65.75 -472.85 66.17 -473.91C66.58 -474.98 67.12 -475.91 67.77 -476.71C68.42 -477.5 69.15 -478.19 69.96 -478.79C70.78 -479.39 71.63 -479.96 72.52 -480.49C73.6 -481.16 74.55 -481.78 75.36 -482.34C76.18 -482.9 76.86 -483.47 77.4 -484.05C77.94 -484.62 78.35 -485.25 78.62 -485.92C78.9 -486.59 79.04 -487.37 79.04 -488.26C79.04 -488.96 78.9 -489.59 78.64 -490.15C78.38 -490.71 78.02 -491.2 77.58 -491.61C77.13 -492.02 76.61 -492.33 76.01 -492.54C75.41 -492.76 74.77 -492.87 74.1 -492.87C73.21 -492.87 72.45 -492.68 71.82 -492.31C71.18 -491.94 70.66 -491.45 70.25 -490.85C69.84 -490.25 69.55 -489.57 69.37 -488.82C69.19 -488.06 69.11 -487.3 69.13 -486.53L66.07 -486.53C66 -487.83 66.13 -489.03 66.47 -490.13Z" />
			<path id="&lt;Compound Path&gt;" fill-rule="evenodd" class="shp3" d="M86.09 -485.49C86.14 -486.5 86.26 -487.48 86.45 -488.44C86.64 -489.4 86.92 -490.31 87.28 -491.18C87.64 -492.04 88.13 -492.8 88.76 -493.44C89.38 -494.09 90.17 -494.61 91.11 -494.99C92.06 -495.37 93.2 -495.57 94.52 -495.57C95.84 -495.57 96.97 -495.37 97.92 -494.99C98.87 -494.61 99.65 -494.09 100.28 -493.44C100.9 -492.8 101.39 -492.04 101.75 -491.18C102.11 -490.31 102.39 -489.4 102.58 -488.44C102.77 -487.48 102.89 -486.5 102.94 -485.49C102.99 -484.48 103.01 -483.51 103.01 -482.57C103.01 -481.63 102.99 -480.66 102.94 -479.66C102.89 -478.65 102.77 -477.66 102.58 -476.71C102.39 -475.75 102.11 -474.84 101.75 -473.99C101.39 -473.13 100.9 -472.38 100.28 -471.74C99.65 -471.09 98.87 -470.58 97.94 -470.21C97 -469.83 95.86 -469.65 94.52 -469.65C93.2 -469.65 92.06 -469.83 91.11 -470.21C90.17 -470.58 89.38 -471.09 88.76 -471.74C88.13 -472.38 87.64 -473.13 87.28 -473.99C86.92 -474.84 86.64 -475.75 86.45 -476.71C86.26 -477.66 86.14 -478.65 86.09 -479.66C86.04 -480.66 86.02 -481.63 86.02 -482.57C86.02 -483.51 86.04 -484.48 86.09 -485.49ZM89.35 -479.38C89.41 -478.2 89.6 -477.08 89.93 -476.04C90.25 -475 90.77 -474.11 91.49 -473.39C92.21 -472.67 93.22 -472.31 94.52 -472.31C95.81 -472.31 96.82 -472.67 97.54 -473.39C98.26 -474.11 98.78 -475 99.11 -476.04C99.43 -477.08 99.62 -478.2 99.68 -479.38C99.74 -480.57 99.77 -481.65 99.77 -482.61C99.77 -483.23 99.77 -483.92 99.75 -484.68C99.74 -485.43 99.68 -486.19 99.57 -486.95C99.47 -487.7 99.31 -488.44 99.11 -489.16C98.9 -489.88 98.6 -490.51 98.21 -491.05C97.81 -491.59 97.31 -492.03 96.71 -492.36C96.11 -492.7 95.38 -492.87 94.52 -492.87C93.65 -492.87 92.92 -492.7 92.32 -492.36C91.72 -492.03 91.22 -491.59 90.83 -491.05C90.43 -490.51 90.13 -489.88 89.93 -489.16C89.72 -488.44 89.57 -487.7 89.46 -486.95C89.35 -486.19 89.29 -485.43 89.28 -484.68C89.27 -483.92 89.26 -483.23 89.26 -482.61C89.26 -481.65 89.29 -480.57 89.35 -479.38Z" />
			<path id="&lt;Compound Path&gt;" fill-rule="evenodd" class="shp3" d="M110 -488.66L110 -486.13L110.07 -486.13C110.57 -487.17 111.36 -487.92 112.44 -488.38C113.52 -488.85 114.71 -489.09 116.01 -489.09C117.45 -489.09 118.7 -488.82 119.77 -488.3C120.84 -487.77 121.73 -487.05 122.43 -486.16C123.14 -485.26 123.67 -484.22 124.04 -483.04C124.4 -481.86 124.58 -480.61 124.58 -479.3C124.58 -477.98 124.4 -476.73 124.05 -475.55C123.71 -474.37 123.18 -473.35 122.47 -472.48C121.76 -471.6 120.87 -470.91 119.81 -470.41C118.74 -469.9 117.5 -469.65 116.08 -469.65C115.62 -469.65 115.11 -469.7 114.55 -469.79C113.99 -469.89 113.43 -470.04 112.88 -470.26C112.32 -470.48 111.8 -470.77 111.31 -471.14C110.82 -471.52 110.4 -471.98 110.07 -472.53L110 -472.53L110 -462.95L106.94 -462.95L106.94 -488.66L110 -488.66ZM120.99 -482.05C120.77 -482.88 120.42 -483.61 119.95 -484.27C119.48 -484.91 118.88 -485.43 118.15 -485.81C117.42 -486.2 116.56 -486.39 115.58 -486.39C114.54 -486.39 113.67 -486.18 112.95 -485.78C112.23 -485.37 111.64 -484.83 111.18 -484.17C110.73 -483.52 110.4 -482.77 110.19 -481.92C109.99 -481.08 109.89 -480.23 109.89 -479.37C109.89 -478.46 110 -477.57 110.21 -476.72C110.43 -475.87 110.77 -475.12 111.24 -474.47C111.71 -473.82 112.31 -473.3 113.06 -472.91C113.8 -472.51 114.7 -472.31 115.76 -472.31C116.81 -472.31 117.69 -472.52 118.4 -472.92C119.11 -473.33 119.68 -473.87 120.11 -474.54C120.54 -475.22 120.86 -475.99 121.05 -476.85C121.24 -477.71 121.34 -478.6 121.34 -479.51C121.34 -480.37 121.22 -481.22 120.99 -482.05Z" />
			<path id="&lt;Compound Path&gt;" class="shp3" d="M126.7 -488.66L130.62 -488.66L135.09 -482.14L139.73 -488.66L143.4 -488.66L137 -480.09L144.19 -470.04L140.27 -470.04L135.09 -477.75L129.9 -470.04L126.19 -470.04L133.18 -479.84L126.7 -488.66Z" />
		</g>
		<g id="&lt;Group&gt;">
			<path id="&lt;Compound Path&gt;" class="shp3" d="M598.9 -538.95L598.9 -516.13L612.51 -516.13L612.51 -513.25L595.48 -513.25L595.48 -538.95L598.9 -538.95Z" />
			<path id="&lt;Compound Path&gt;" fill-rule="evenodd" class="shp3" d="M629.28 -512.85C628.49 -512.85 627.86 -513.07 627.39 -513.52C626.92 -513.96 626.69 -514.69 626.69 -515.7C625.85 -514.69 624.87 -513.96 623.76 -513.52C622.64 -513.07 621.43 -512.85 620.14 -512.85C619.3 -512.85 618.51 -512.94 617.76 -513.12C617.02 -513.3 616.36 -513.6 615.8 -514.02C615.24 -514.44 614.79 -514.98 614.47 -515.64C614.14 -516.3 613.98 -517.1 613.98 -518.04C613.98 -519.09 614.16 -519.95 614.52 -520.63C614.88 -521.3 615.36 -521.84 615.94 -522.26C616.53 -522.69 617.2 -523 617.96 -523.22C618.72 -523.44 619.49 -523.62 620.28 -523.76C621.12 -523.93 621.92 -524.05 622.68 -524.14C623.43 -524.22 624.1 -524.34 624.67 -524.5C625.25 -524.65 625.71 -524.88 626.04 -525.18C626.38 -525.48 626.55 -525.92 626.55 -526.49C626.55 -527.17 626.42 -527.71 626.17 -528.12C625.92 -528.52 625.59 -528.83 625.2 -529.05C624.8 -529.27 624.36 -529.41 623.86 -529.48C623.37 -529.56 622.89 -529.59 622.41 -529.59C621.11 -529.59 620.03 -529.34 619.17 -528.86C618.3 -528.36 617.83 -527.43 617.76 -526.06L614.7 -526.06C614.75 -527.21 614.99 -528.19 615.42 -528.98C615.85 -529.77 616.43 -530.41 617.15 -530.91C617.87 -531.4 618.7 -531.75 619.63 -531.97C620.57 -532.18 621.56 -532.29 622.59 -532.29C623.43 -532.29 624.26 -532.23 625.09 -532.11C625.92 -531.99 626.67 -531.74 627.34 -531.37C628.01 -531 628.55 -530.48 628.96 -529.81C629.37 -529.14 629.57 -528.26 629.57 -527.18L629.57 -517.61C629.57 -516.88 629.61 -516.36 629.7 -516.02C629.78 -515.68 630.06 -515.51 630.54 -515.51C630.81 -515.51 631.12 -515.58 631.48 -515.7L631.48 -513.32C630.95 -513.01 630.22 -512.85 629.28 -512.85ZM625 -522.23C624.37 -522.1 623.72 -521.99 623.04 -521.91C622.35 -521.82 621.66 -521.72 620.97 -521.62C620.27 -521.51 619.64 -521.33 619.09 -521.1C618.54 -520.86 618.09 -520.51 617.75 -520.07C617.39 -519.63 617.23 -519.02 617.23 -518.25C617.23 -517.75 617.32 -517.32 617.53 -516.97C617.73 -516.63 618 -516.35 618.32 -516.13C618.64 -515.91 619.03 -515.75 619.48 -515.66C619.92 -515.56 620.37 -515.51 620.82 -515.51C621.83 -515.51 622.69 -515.65 623.42 -515.93C624.13 -516.2 624.72 -516.55 625.18 -516.97C625.63 -517.39 625.97 -517.85 626.19 -518.34C626.4 -518.83 626.51 -519.3 626.51 -519.73L626.51 -522.86C626.13 -522.57 625.62 -522.36 625 -522.23Z" />
			<path id="&lt;Compound Path&gt;" class="shp3" d="M637.09 -531.86L637.09 -527.94L637.16 -527.94C637.91 -529.45 638.82 -530.56 639.9 -531.28C640.98 -532 642.35 -532.34 644.01 -532.29L644.01 -529.05C642.78 -529.05 641.74 -528.88 640.87 -528.55C640.01 -528.21 639.31 -527.72 638.79 -527.07C638.26 -526.42 637.87 -525.64 637.63 -524.71C637.39 -523.79 637.28 -522.73 637.28 -521.53L637.28 -513.25L634.21 -513.25L634.21 -531.86L637.09 -531.86Z" />
			<path id="&lt;Compound Path&gt;" fill-rule="evenodd" class="shp3" d="M659.27 -507.99C657.88 -506.48 655.69 -505.72 652.72 -505.72C651.85 -505.72 650.98 -505.82 650.07 -506.01C649.17 -506.2 648.36 -506.51 647.62 -506.95C646.89 -507.38 646.29 -507.94 645.81 -508.64C645.33 -509.34 645.06 -510.19 645.02 -511.2L648.07 -511.2C648.1 -510.64 648.27 -510.18 648.6 -509.79C648.92 -509.41 649.32 -509.1 649.79 -508.86C650.25 -508.62 650.76 -508.44 651.31 -508.33C651.87 -508.22 652.39 -508.17 652.9 -508.17C653.91 -508.17 654.76 -508.35 655.45 -508.69C656.15 -509.04 656.73 -509.52 657.18 -510.13C657.64 -510.74 657.97 -511.48 658.17 -512.35C658.38 -513.21 658.48 -514.16 658.48 -515.19L658.48 -516.42L658.41 -516.42C657.88 -515.26 657.08 -514.42 656.01 -513.88C654.94 -513.34 653.81 -513.07 652.61 -513.07C651.22 -513.07 650.01 -513.32 648.98 -513.82C647.94 -514.33 647.08 -515 646.38 -515.86C645.69 -516.71 645.16 -517.7 644.82 -518.85C644.47 -519.98 644.3 -521.19 644.3 -522.46C644.3 -523.57 644.44 -524.7 644.73 -525.87C645.02 -527.03 645.5 -528.08 646.17 -529.03C646.84 -529.98 647.73 -530.76 648.83 -531.37C649.93 -531.98 651.29 -532.29 652.9 -532.29C654.07 -532.29 655.15 -532.03 656.14 -531.52C657.12 -531 657.89 -530.23 658.44 -529.2L658.48 -529.2L658.48 -531.86L661.36 -531.86L661.36 -514.83C661.36 -511.78 660.66 -509.5 659.27 -507.99ZM655.36 -516.36C656.07 -516.78 656.64 -517.33 657.07 -518.02C657.51 -518.7 657.82 -519.47 658.03 -520.34C658.23 -521.2 658.33 -522.07 658.33 -522.93C658.33 -523.75 658.24 -524.55 658.05 -525.35C657.85 -526.14 657.55 -526.85 657.13 -527.48C656.71 -528.12 656.16 -528.63 655.49 -529.01C654.82 -529.4 654 -529.59 653.04 -529.59C652.06 -529.59 651.22 -529.41 650.52 -529.03C649.83 -528.66 649.26 -528.16 648.81 -527.54C648.37 -526.92 648.05 -526.2 647.84 -525.38C647.64 -524.56 647.54 -523.71 647.54 -522.82C647.54 -521.98 647.62 -521.14 647.79 -520.3C647.95 -519.46 648.24 -518.7 648.65 -518.02C649.06 -517.33 649.6 -516.78 650.27 -516.36C650.94 -515.94 651.78 -515.73 652.79 -515.73C653.8 -515.73 654.65 -515.94 655.36 -516.36Z" />
			<path id="&lt;Compound Path&gt;" fill-rule="evenodd" class="shp3" d="M679.14 -514.44C677.75 -513.38 676 -512.85 673.89 -512.85C672.4 -512.85 671.11 -513.09 670.02 -513.57C668.92 -514.05 668.01 -514.72 667.26 -515.59C666.52 -516.45 665.96 -517.48 665.59 -518.68C665.22 -519.88 665.01 -521.19 664.96 -522.61C664.96 -524.02 665.17 -525.32 665.61 -526.49C666.04 -527.67 666.64 -528.69 667.42 -529.56C668.2 -530.42 669.13 -531.09 670.2 -531.57C671.26 -532.05 672.43 -532.29 673.71 -532.29C675.36 -532.29 676.74 -531.95 677.83 -531.26C678.92 -530.58 679.8 -529.71 680.46 -528.66C681.12 -527.6 681.57 -526.45 681.82 -525.2C682.08 -523.95 682.18 -522.76 682.13 -521.64L668.2 -521.64C668.17 -520.82 668.27 -520.05 668.49 -519.31C668.7 -518.58 669.05 -517.93 669.53 -517.37C670.01 -516.81 670.62 -516.36 671.37 -516.02C672.11 -515.68 672.99 -515.51 673.99 -515.51C675.29 -515.51 676.35 -515.82 677.18 -516.42C678.01 -517.01 678.56 -517.93 678.82 -519.15L681.84 -519.15C681.43 -517.06 680.54 -515.49 679.14 -514.44ZM678.4 -526.39C678.13 -527.04 677.76 -527.6 677.29 -528.06C676.82 -528.53 676.27 -528.9 675.63 -529.18C675 -529.45 674.3 -529.59 673.53 -529.59C672.73 -529.59 672.02 -529.45 671.38 -529.18C670.75 -528.9 670.2 -528.52 669.75 -528.04C669.29 -527.56 668.93 -527 668.66 -526.37C668.4 -525.73 668.25 -525.06 668.2 -524.33L678.89 -524.33C678.84 -525.06 678.68 -525.74 678.4 -526.39Z" />
			<path id="&lt;Compound Path&gt;" class="shp3" d="M688.07 -531.86L688.07 -527.94L688.14 -527.94C688.89 -529.45 689.8 -530.56 690.88 -531.28C691.96 -532 693.33 -532.34 694.98 -532.29L694.98 -529.05C693.76 -529.05 692.71 -528.88 691.85 -528.55C690.99 -528.21 690.29 -527.72 689.76 -527.07C689.23 -526.42 688.85 -525.64 688.61 -524.71C688.37 -523.79 688.25 -522.73 688.25 -521.53L688.25 -513.25L685.19 -513.25L685.19 -531.86L688.07 -531.86Z" />
			<path id="&lt;Compound Path&gt;" class="shp3" d="M546.77 -485.96L546.77 -488.66L549.9 -488.66L549.9 -491.43C549.9 -492.94 550.34 -494.09 551.22 -494.87C552.09 -495.65 553.37 -496.04 555.05 -496.04C555.34 -496.04 555.67 -496.01 556.04 -495.97C556.41 -495.92 556.74 -495.85 557.03 -495.75L557.03 -493.09C556.77 -493.18 556.48 -493.25 556.17 -493.29C555.85 -493.32 555.57 -493.34 555.3 -493.34C554.56 -493.34 553.98 -493.2 553.57 -492.91C553.17 -492.62 552.97 -492.07 552.97 -491.25L552.97 -488.66L556.56 -488.66L556.56 -485.96L552.97 -485.96L552.97 -470.05L549.9 -470.05L549.9 -485.96L546.77 -485.96Z" />
			<path id="&lt;Compound Path&gt;" fill-rule="evenodd" class="shp3" d="M558.87 -483.17C559.25 -484.36 559.83 -485.39 560.59 -486.26C561.36 -487.14 562.31 -487.83 563.44 -488.34C564.57 -488.84 565.86 -489.09 567.33 -489.09C568.81 -489.09 570.12 -488.84 571.23 -488.34C572.35 -487.83 573.29 -487.14 574.06 -486.26C574.83 -485.39 575.4 -484.36 575.79 -483.17C576.17 -481.98 576.36 -480.7 576.36 -479.34C576.36 -477.97 576.17 -476.7 575.79 -475.52C575.4 -474.35 574.83 -473.32 574.06 -472.44C573.29 -471.57 572.35 -470.88 571.23 -470.39C570.12 -469.9 568.81 -469.65 567.33 -469.65C565.86 -469.65 564.57 -469.9 563.44 -470.39C562.31 -470.88 561.36 -471.57 560.59 -472.44C559.83 -473.32 559.25 -474.35 558.87 -475.52C558.48 -476.7 558.29 -477.97 558.29 -479.34C558.29 -480.7 558.48 -481.98 558.87 -483.17ZM561.98 -476.33C562.28 -475.45 562.69 -474.72 563.23 -474.13C563.75 -473.55 564.37 -473.1 565.08 -472.78C565.79 -472.47 566.54 -472.32 567.33 -472.32C568.12 -472.32 568.87 -472.47 569.58 -472.78C570.29 -473.1 570.9 -473.55 571.43 -474.13C571.96 -474.72 572.37 -475.45 572.67 -476.33C572.98 -477.2 573.12 -478.21 573.12 -479.34C573.12 -480.46 572.98 -481.46 572.67 -482.34C572.37 -483.22 571.96 -483.95 571.43 -484.56C570.9 -485.16 570.29 -485.61 569.58 -485.92C568.87 -486.23 568.12 -486.39 567.33 -486.39C566.54 -486.39 565.79 -486.23 565.08 -485.92C564.37 -485.61 563.75 -485.16 563.23 -484.56C562.69 -483.95 562.28 -483.22 561.98 -482.34C561.68 -481.46 561.53 -480.46 561.53 -479.34C561.53 -478.21 561.68 -477.2 561.98 -476.33Z" />
			<path id="&lt;Compound Path&gt;" class="shp3" d="M582.74 -488.66L582.74 -484.73L582.81 -484.73C583.55 -486.25 584.47 -487.36 585.54 -488.09C586.62 -488.8 587.99 -489.14 589.65 -489.09L589.65 -485.85C588.42 -485.85 587.38 -485.68 586.52 -485.35C585.65 -485.01 584.95 -484.52 584.43 -483.87C583.9 -483.22 583.52 -482.44 583.28 -481.51C583.04 -480.59 582.92 -479.53 582.92 -478.33L582.92 -470.05L579.85 -470.05L579.85 -488.66L582.74 -488.66Z" />
			<path id="&lt;Compound Path&gt;" class="shp3" d="M609.41 -470.05L609.41 -488.34L602.79 -488.34L602.79 -490.78C603.65 -490.78 604.49 -490.85 605.31 -490.98C606.12 -491.11 606.86 -491.36 607.52 -491.72C608.18 -492.08 608.74 -492.57 609.19 -493.2C609.65 -493.82 609.96 -494.61 610.13 -495.57L612.47 -495.57L612.47 -470.05L609.41 -470.05Z" />
			<path id="&lt;Compound Path&gt;" class="shp3" d="M621.65 -490.14C621.99 -491.24 622.51 -492.19 623.22 -493C623.92 -493.8 624.81 -494.43 625.86 -494.89C626.92 -495.34 628.12 -495.57 629.47 -495.57C630.57 -495.57 631.6 -495.41 632.58 -495.09C633.55 -494.76 634.4 -494.29 635.11 -493.68C635.83 -493.07 636.41 -492.31 636.82 -491.4C637.25 -490.48 637.46 -489.43 637.46 -488.23C637.46 -487.1 637.28 -486.11 636.93 -485.24C636.58 -484.38 636.12 -483.6 635.55 -482.92C634.97 -482.23 634.31 -481.62 633.57 -481.06C632.82 -480.51 632.06 -479.98 631.26 -479.48C630.47 -479 629.68 -478.53 628.89 -478.06C628.09 -477.59 627.37 -477.09 626.71 -476.56C626.05 -476.04 625.49 -475.46 625.02 -474.86C624.55 -474.24 624.24 -473.54 624.1 -472.75L637.21 -472.75L637.21 -470.05L620.54 -470.05C620.66 -471.56 620.92 -472.85 621.34 -473.92C621.77 -474.98 622.3 -475.92 622.95 -476.71C623.59 -477.5 624.33 -478.2 625.14 -478.8C625.96 -479.4 626.81 -479.96 627.7 -480.49C628.78 -481.16 629.73 -481.78 630.54 -482.34C631.36 -482.91 632.04 -483.47 632.58 -484.05C633.12 -484.63 633.53 -485.25 633.8 -485.92C634.08 -486.6 634.22 -487.38 634.22 -488.26C634.22 -488.96 634.08 -489.59 633.82 -490.15C633.56 -490.72 633.2 -491.2 632.76 -491.61C632.31 -492.02 631.79 -492.33 631.19 -492.55C630.59 -492.76 629.95 -492.87 629.28 -492.87C628.39 -492.87 627.63 -492.69 627 -492.31C626.36 -491.94 625.84 -491.45 625.43 -490.86C625.02 -490.25 624.73 -489.58 624.55 -488.82C624.37 -488.07 624.29 -487.3 624.31 -486.54L621.26 -486.54C621.18 -487.83 621.31 -489.03 621.65 -490.14Z" />
			<path id="&lt;Compound Path&gt;" fill-rule="evenodd" class="shp3" d="M641.27 -485.49C641.32 -486.5 641.44 -487.48 641.63 -488.44C641.82 -489.4 642.1 -490.32 642.46 -491.18C642.82 -492.04 643.31 -492.8 643.93 -493.45C644.56 -494.1 645.34 -494.61 646.29 -494.99C647.24 -495.38 648.37 -495.57 649.69 -495.57C651.02 -495.57 652.15 -495.38 653.1 -494.99C654.05 -494.61 654.83 -494.1 655.45 -493.45C656.08 -492.8 656.57 -492.04 656.93 -491.18C657.29 -490.32 657.57 -489.4 657.76 -488.44C657.95 -487.48 658.07 -486.5 658.12 -485.49C658.17 -484.48 658.19 -483.51 658.19 -482.58C658.19 -481.64 658.17 -480.67 658.12 -479.66C658.07 -478.65 657.95 -477.67 657.76 -476.71C657.57 -475.75 657.29 -474.84 656.93 -473.99C656.57 -473.14 656.08 -472.39 655.45 -471.74C654.83 -471.09 654.05 -470.58 653.11 -470.21C652.18 -469.84 651.04 -469.65 649.69 -469.65C648.37 -469.65 647.24 -469.84 646.29 -470.21C645.34 -470.58 644.56 -471.09 643.93 -471.74C643.31 -472.39 642.82 -473.14 642.46 -473.99C642.1 -474.84 641.82 -475.75 641.63 -476.71C641.44 -477.67 641.32 -478.65 641.27 -479.66C641.22 -480.67 641.2 -481.64 641.2 -482.58C641.2 -483.51 641.22 -484.48 641.27 -485.49ZM644.53 -479.39C644.59 -478.2 644.78 -477.09 645.1 -476.04C645.43 -475 645.95 -474.12 646.67 -473.4C647.39 -472.68 648.4 -472.32 649.69 -472.32C650.99 -472.32 652 -472.68 652.72 -473.4C653.44 -474.12 653.96 -475 654.29 -476.04C654.61 -477.09 654.8 -478.2 654.86 -479.39C654.92 -480.58 654.95 -481.65 654.95 -482.61C654.95 -483.23 654.94 -483.93 654.93 -484.68C654.92 -485.44 654.86 -486.19 654.75 -486.95C654.64 -487.7 654.49 -488.44 654.29 -489.16C654.08 -489.88 653.78 -490.51 653.38 -491.05C652.99 -491.6 652.49 -492.03 651.89 -492.37C651.29 -492.7 650.56 -492.87 649.69 -492.87C648.83 -492.87 648.1 -492.7 647.5 -492.37C646.9 -492.03 646.4 -491.6 646.01 -491.05C645.61 -490.51 645.31 -489.88 645.1 -489.16C644.9 -488.44 644.75 -487.7 644.64 -486.95C644.53 -486.19 644.47 -485.44 644.46 -484.68C644.44 -483.93 644.44 -483.23 644.44 -482.61C644.44 -481.65 644.47 -480.58 644.53 -479.39Z" />
			<path id="&lt;Compound Path&gt;" fill-rule="evenodd" class="shp3" d="M665.17 -488.66L665.17 -486.14L665.25 -486.14C665.75 -487.17 666.54 -487.92 667.62 -488.39C668.7 -488.86 669.89 -489.09 671.19 -489.09C672.63 -489.09 673.88 -488.83 674.95 -488.3C676.02 -487.77 676.9 -487.06 677.61 -486.16C678.32 -485.26 678.85 -484.22 679.21 -483.04C679.57 -481.87 679.76 -480.62 679.76 -479.3C679.76 -477.98 679.58 -476.73 679.23 -475.56C678.88 -474.38 678.36 -473.36 677.65 -472.48C676.94 -471.6 676.05 -470.91 674.99 -470.41C673.91 -469.9 672.67 -469.65 671.26 -469.65C670.8 -469.65 670.29 -469.7 669.73 -469.8C669.16 -469.89 668.61 -470.05 668.06 -470.26C667.5 -470.48 666.98 -470.77 666.49 -471.15C666 -471.52 665.58 -471.98 665.25 -472.53L665.17 -472.53L665.17 -462.95L662.11 -462.95L662.11 -488.66L665.17 -488.66ZM676.17 -482.05C675.94 -482.88 675.6 -483.62 675.13 -484.27C674.66 -484.92 674.06 -485.43 673.33 -485.82C672.6 -486.2 671.74 -486.39 670.76 -486.39C669.72 -486.39 668.85 -486.19 668.13 -485.78C667.4 -485.37 666.82 -484.84 666.36 -484.18C665.9 -483.52 665.58 -482.77 665.37 -481.93C665.17 -481.09 665.07 -480.23 665.07 -479.37C665.07 -478.46 665.17 -477.58 665.39 -476.72C665.61 -475.87 665.95 -475.12 666.41 -474.47C666.88 -473.83 667.49 -473.31 668.24 -472.91C668.98 -472.51 669.88 -472.32 670.93 -472.32C671.99 -472.32 672.87 -472.52 673.58 -472.93C674.29 -473.33 674.86 -473.88 675.29 -474.55C675.72 -475.22 676.04 -475.99 676.23 -476.85C676.42 -477.71 676.52 -478.61 676.52 -479.51C676.52 -480.38 676.4 -481.22 676.17 -482.05Z" />
			<path id="&lt;Compound Path&gt;" class="shp3" d="M681.88 -488.66L685.8 -488.66L690.26 -482.14L694.91 -488.66L698.58 -488.66L692.17 -480.09L699.37 -470.05L695.45 -470.05L690.26 -477.75L685.08 -470.05L681.37 -470.05L688.36 -479.84L681.88 -488.66Z" />
			<path id="&lt;Compound Path&gt;" class="shp3" d="M729.58 -480.38L729.58 -477.93L721.73 -477.93L721.73 -470.05L719.28 -470.05L719.28 -477.93L711.43 -477.93L711.43 -480.38L719.28 -480.38L719.28 -488.26L721.73 -488.26L721.73 -480.38L729.58 -480.38Z" />
		</g>
		<path id="&lt;Path&gt;" class="shp4" d="M49.82 1.36C22.84 1.36 0.96 23.24 0.96 50.24C0.96 71.82 14.96 90.14 34.38 96.6C36.82 97.05 37.72 95.54 37.72 94.25C37.72 93.09 37.67 90.01 37.65 85.94C28.59 87.91 23.1 85.72 21.19 79.39C19.71 75.62 17.9 73.24 15.76 72.24C12.8 70.22 12.92 69.23 16.1 69.27C19.37 69.5 21.86 71.18 23.58 74.3C27.94 81.77 35.02 79.61 37.81 78.36C38.25 75.21 39.51 73.05 40.91 71.83C30.06 70.6 18.65 66.4 18.65 47.68C18.65 42.34 20.55 37.98 23.68 34.56C23.18 33.33 21.5 28.36 24.16 21.63C26.89 20.76 31.37 22.43 37.6 26.64C41.49 25.56 45.68 25.02 49.83 25C53.98 25.02 58.16 25.56 62.07 26.64C68.29 22.43 72.76 20.76 75.49 21.63C78.16 28.36 76.48 33.33 75.98 34.56C79.11 37.98 81 42.34 81 47.68C81 66.45 69.57 70.58 58.69 71.79C60.44 73.3 62.01 76.28 62.01 80.84C62.01 87.38 61.95 92.65 61.95 94.25C61.95 95.55 62.83 97.08 65.31 96.6C84.71 90.12 98.7 71.82 98.7 50.24C98.7 23.24 76.81 1.36 49.82 1.36Z" />
		<g id="&lt;Group&gt;">
			<path id="&lt;Path&gt;" class="shp4" d="M643.83 -145.66C543.79 -145.66 462.66 -64.56 462.66 35.5C462.66 115.54 514.57 183.45 586.55 207.4C595.61 209.08 598.93 203.47 598.93 198.69C598.93 194.37 598.76 180.1 598.69 164.96C565.09 172.27 544.74 165.14 537.65 143.58C532.16 129.63 525.45 120.79 517.54 117.08C506.58 109.58 506.99 105.91 518.78 106.06C530.9 106.92 540.16 113.14 546.55 124.73C562.7 152.43 588.93 144.42 599.27 139.79C600.89 128.09 605.59 120.09 610.77 115.57C570.53 110.99 528.23 95.45 528.23 26.04C528.23 6.26 535.31 -9.9 546.89 -22.59C545.01 -27.16 538.81 -45.58 548.65 -70.54C558.79 -73.78 575.4 -67.59 598.48 -51.96C612.93 -55.98 628.43 -57.99 643.83 -58.06C659.22 -57.99 674.73 -55.98 689.21 -51.96C712.26 -67.59 728.85 -73.78 738.98 -70.54C748.84 -45.58 742.64 -27.16 740.76 -22.59C752.37 -9.9 759.4 6.26 759.4 26.04C759.4 95.62 717.02 110.94 676.68 115.42C683.18 121.05 688.97 132.07 688.97 148.97C688.97 173.21 688.76 192.72 688.76 198.69C688.76 203.51 692.02 209.16 701.2 207.38C773.15 183.4 824.99 115.51 824.99 35.5C824.99 -64.56 743.88 -145.66 643.83 -145.66Z" />
			<path id="&lt;Compound Path&gt;" class="shp4" d="M531.28 114.45C530.88 115.35 529.46 115.62 528.17 115C526.86 114.41 526.12 113.18 526.55 112.28C526.94 111.35 528.36 111.09 529.67 111.71C530.98 112.3 531.73 113.54 531.28 114.45Z" />
			<path id="&lt;Compound Path&gt;" class="shp4" d="M538.62 122.63C537.75 123.43 536.06 123.06 534.92 121.79C533.73 120.53 533.51 118.84 534.39 118.03C535.28 117.23 536.92 117.6 538.1 118.87C539.29 120.14 539.52 121.82 538.62 122.63Z" />
			<path id="&lt;Compound Path&gt;" class="shp4" d="M545.76 133.06C544.65 133.84 542.83 133.11 541.71 131.5C540.6 129.89 540.6 127.96 541.74 127.18C542.86 126.41 544.65 127.11 545.79 128.7C546.89 130.34 546.89 132.28 545.76 133.06Z" />
			<path id="&lt;Compound Path&gt;" class="shp4" d="M555.55 143.14C554.55 144.24 552.44 143.94 550.89 142.45C549.31 140.99 548.87 138.92 549.86 137.82C550.87 136.73 552.99 137.03 554.55 138.52C556.13 139.97 556.6 142.06 555.55 143.14Z" />
			<path id="&lt;Compound Path&gt;" class="shp4" d="M569.05 149C568.61 150.42 566.57 151.06 564.52 150.46C562.47 149.84 561.13 148.17 561.54 146.74C561.97 145.31 564.02 144.64 566.08 145.29C568.13 145.9 569.47 147.55 569.05 149Z" />
			<path id="&lt;Compound Path&gt;" class="shp4" d="M583.87 150.08C583.92 151.58 582.18 152.82 580.03 152.84C577.86 152.89 576.11 151.68 576.09 150.21C576.09 148.7 577.79 147.48 579.95 147.44C582.11 147.4 583.87 148.6 583.87 150.08Z" />
			<path id="&lt;Compound Path&gt;" class="shp4" d="M597.67 147.74C597.93 149.19 596.43 150.69 594.29 151.09C592.19 151.47 590.24 150.57 589.97 149.13C589.71 147.63 591.24 146.14 593.34 145.75C595.48 145.38 597.4 146.25 597.67 147.74Z" />
		</g>
		<g id="&lt;Group&gt;">
			<g id="&lt;Group&gt;">
				<path id="&lt;Path&gt;" class="shp2" d="M266.69 -163.46L266.69 -161.96" />
				<path id="&lt;Path&gt;" class="shp2" d="M266.69 -155.96L266.69 246.01" />
				<path id="&lt;Path&gt;" class="shp2" d="M266.69 249.01L266.69 250.51" />
			</g>
		</g>
		<g id="&lt;Group&gt;">
			<path id="&lt;Compound Path&gt;" class="shp3" d="M-8.17 292.56C-9.31 291.73 -10.77 291.32 -12.55 291.32C-13.27 291.32 -13.97 291.39 -14.67 291.53C-15.37 291.68 -15.98 291.92 -16.52 292.25C-17.06 292.59 -17.5 293.04 -17.82 293.61C-18.15 294.17 -18.31 294.87 -18.31 295.71C-18.31 296.5 -18.07 297.15 -17.6 297.64C-17.14 298.13 -16.51 298.53 -15.73 298.84C-14.95 299.16 -14.07 299.41 -13.09 299.62C-12.1 299.82 -11.1 300.04 -10.08 300.28C-9.06 300.52 -8.06 300.81 -7.08 301.13C-6.09 301.45 -5.21 301.89 -4.43 302.44C-3.65 302.99 -3.02 303.69 -2.56 304.53C-2.09 305.37 -1.85 306.43 -1.85 307.7C-1.85 309.07 -2.16 310.24 -2.77 311.21C-3.39 312.18 -4.17 312.97 -5.13 313.59C-6.09 314.2 -7.16 314.64 -8.35 314.92C-9.54 315.19 -10.72 315.33 -11.9 315.33C-13.34 315.33 -14.7 315.15 -15.98 314.79C-17.27 314.43 -18.4 313.89 -19.37 313.15C-20.34 312.42 -21.11 311.48 -21.67 310.34C-22.24 309.21 -22.52 307.86 -22.52 306.3L-19.28 306.3C-19.28 307.38 -19.07 308.31 -18.65 309.09C-18.23 309.87 -17.68 310.51 -16.99 311.01C-16.31 311.51 -15.51 311.89 -14.6 312.13C-13.69 312.37 -12.75 312.49 -11.79 312.49C-11.02 312.49 -10.25 312.42 -9.47 312.27C-8.69 312.13 -7.99 311.88 -7.36 311.53C-6.74 311.19 -6.23 310.71 -5.85 310.11C-5.47 309.51 -5.27 308.74 -5.27 307.81C-5.27 306.92 -5.51 306.2 -5.98 305.65C-6.45 305.1 -7.07 304.65 -7.85 304.3C-8.63 303.95 -9.51 303.67 -10.49 303.45C-11.48 303.23 -12.48 303.01 -13.5 302.78C-14.52 302.56 -15.52 302.29 -16.51 301.99C-17.49 301.69 -18.37 301.3 -19.15 300.81C-19.93 300.31 -20.56 299.68 -21.02 298.9C-21.49 298.12 -21.73 297.14 -21.73 295.96C-21.73 294.67 -21.46 293.55 -20.93 292.6C-20.41 291.65 -19.71 290.87 -18.83 290.26C-17.95 289.65 -16.96 289.19 -15.84 288.89C-14.72 288.59 -13.58 288.44 -12.4 288.44C-11.08 288.44 -9.86 288.6 -8.73 288.91C-7.6 289.22 -6.61 289.71 -5.76 290.38C-4.91 291.06 -4.24 291.9 -3.74 292.92C-3.25 293.94 -2.98 295.16 -2.93 296.58L-6.17 296.58C-6.37 294.73 -7.03 293.39 -8.17 292.56Z" />
			<path id="&lt;Compound Path&gt;" class="shp3" d="M4.66 296.14L4.66 298.88L4.73 298.88C6.12 296.77 8.13 295.71 10.74 295.71C11.9 295.71 12.94 295.95 13.88 296.43C14.81 296.91 15.47 297.73 15.86 298.88C16.48 297.87 17.3 297.09 18.32 296.54C19.34 295.99 20.47 295.71 21.69 295.71C22.62 295.71 23.47 295.81 24.23 296.02C24.98 296.22 25.63 296.54 26.17 296.97C26.71 297.4 27.13 297.96 27.43 298.65C27.73 299.33 27.88 300.15 27.88 301.11L27.88 314.75L24.82 314.75L24.82 302.55C24.82 301.97 24.77 301.44 24.68 300.93C24.58 300.43 24.4 299.99 24.14 299.62C23.87 299.24 23.51 298.95 23.04 298.73C22.57 298.52 21.97 298.41 21.22 298.41C19.71 298.41 18.52 298.84 17.66 299.71C16.79 300.57 16.36 301.72 16.36 303.16L16.36 314.75L13.3 314.75L13.3 302.55C13.3 301.95 13.25 301.4 13.14 300.9C13.03 300.39 12.85 299.95 12.58 299.58C12.32 299.21 11.96 298.92 11.52 298.72C11.07 298.51 10.5 298.41 9.81 298.41C8.92 298.41 8.16 298.59 7.52 298.95C6.89 299.31 6.37 299.74 5.98 300.25C5.58 300.75 5.29 301.27 5.11 301.81C4.93 302.36 4.84 302.8 4.84 303.16L4.84 314.75L1.78 314.75L1.78 296.14L4.66 296.14Z" />
			<path id="&lt;Compound Path&gt;" fill-rule="evenodd" class="shp3" d="M46.78 315.15C45.99 315.15 45.36 314.93 44.89 314.48C44.42 314.04 44.19 313.32 44.19 312.31C43.35 313.32 42.37 314.04 41.25 314.48C40.14 314.93 38.93 315.15 37.64 315.15C36.8 315.15 36 315.06 35.26 314.88C34.52 314.7 33.86 314.4 33.3 313.98C32.73 313.56 32.29 313.02 31.97 312.36C31.64 311.7 31.48 310.9 31.48 309.97C31.48 308.91 31.66 308.05 32.02 307.38C32.38 306.7 32.85 306.16 33.44 305.74C34.03 305.32 34.7 305 35.46 304.78C36.21 304.57 36.99 304.39 37.78 304.24C38.62 304.08 39.42 303.95 40.17 303.87C40.93 303.78 41.6 303.66 42.17 303.5C42.75 303.35 43.2 303.12 43.54 302.82C43.88 302.52 44.04 302.08 44.04 301.51C44.04 300.84 43.92 300.3 43.67 299.89C43.41 299.48 43.09 299.17 42.69 298.95C42.3 298.73 41.85 298.59 41.36 298.52C40.87 298.45 40.38 298.41 39.91 298.41C38.61 298.41 37.53 298.66 36.66 299.15C35.8 299.64 35.33 300.57 35.26 301.94L32.2 301.94C32.25 300.79 32.49 299.82 32.92 299.02C33.35 298.23 33.93 297.59 34.65 297.1C35.37 296.61 36.2 296.25 37.13 296.03C38.07 295.82 39.05 295.71 40.08 295.71C40.92 295.71 41.76 295.77 42.59 295.89C43.41 296.01 44.16 296.26 44.84 296.63C45.51 297 46.05 297.52 46.46 298.2C46.86 298.87 47.07 299.74 47.07 300.82L47.07 310.4C47.07 311.12 47.11 311.65 47.19 311.98C47.28 312.32 47.56 312.49 48.04 312.49C48.3 312.49 48.62 312.43 48.98 312.31L48.98 314.68C48.45 314.99 47.72 315.15 46.78 315.15ZM42.5 305.77C41.87 305.91 41.22 306.01 40.54 306.1C39.85 306.18 39.16 306.28 38.46 306.39C37.77 306.49 37.14 306.67 36.59 306.91C36.04 307.15 35.59 307.49 35.24 307.93C34.89 308.38 34.72 308.98 34.72 309.75C34.72 310.25 34.82 310.68 35.03 311.03C35.23 311.38 35.49 311.66 35.82 311.88C36.14 312.09 36.53 312.25 36.97 312.34C37.41 312.44 37.86 312.49 38.32 312.49C39.33 312.49 40.19 312.35 40.91 312.07C41.63 311.8 42.22 311.45 42.68 311.03C43.13 310.61 43.47 310.15 43.68 309.66C43.9 309.17 44.01 308.71 44.01 308.27L44.01 305.14C43.62 305.43 43.12 305.64 42.5 305.77Z" />
			<path id="&lt;Compound Path&gt;" class="shp3" d="M55.06 289.05L55.06 314.75L52 314.75L52 289.05L55.06 289.05Z" />
			<path id="&lt;Compound Path&gt;" class="shp3" d="M63.05 289.05L63.05 314.75L59.99 314.75L59.99 289.05L63.05 289.05Z" />
			<path id="&lt;Compound Path&gt;" class="shp3" d="M-102.44 342.04L-102.44 339.34L-99.31 339.34L-99.31 336.57C-99.31 335.06 -98.87 333.91 -97.99 333.13C-97.12 332.36 -95.84 331.96 -94.16 331.96C-93.87 331.96 -93.54 331.99 -93.17 332.03C-92.8 332.08 -92.47 332.16 -92.18 332.25L-92.18 334.92C-92.44 334.82 -92.73 334.75 -93.04 334.72C-93.35 334.68 -93.64 334.66 -93.91 334.66C-94.65 334.66 -95.23 334.81 -95.63 335.09C-96.04 335.38 -96.25 335.94 -96.25 336.75L-96.25 339.34L-92.65 339.34L-92.65 342.04L-96.25 342.04L-96.25 357.96L-99.31 357.96L-99.31 342.04L-102.44 342.04Z" />
			<path id="&lt;Compound Path&gt;" fill-rule="evenodd" class="shp3" d="M-90.34 344.83C-89.96 343.65 -89.38 342.62 -88.61 341.74C-87.85 340.86 -86.9 340.17 -85.77 339.67C-84.64 339.16 -83.35 338.91 -81.88 338.91C-80.4 338.91 -79.09 339.16 -77.98 339.67C-76.86 340.17 -75.92 340.86 -75.15 341.74C-74.38 342.62 -73.81 343.65 -73.42 344.83C-73.04 346.02 -72.85 347.3 -72.85 348.67C-72.85 350.03 -73.04 351.31 -73.42 352.48C-73.81 353.66 -74.38 354.69 -75.15 355.56C-75.92 356.44 -76.86 357.12 -77.98 357.62C-79.09 358.1 -80.4 358.35 -81.88 358.35C-83.35 358.35 -84.64 358.1 -85.77 357.62C-86.9 357.12 -87.85 356.44 -88.61 355.56C-89.38 354.69 -89.96 353.66 -90.34 352.48C-90.73 351.31 -90.92 350.03 -90.92 348.67C-90.92 347.3 -90.73 346.02 -90.34 344.83ZM-87.23 351.67C-86.93 352.55 -86.52 353.28 -85.99 353.87C-85.46 354.46 -84.84 354.91 -84.13 355.22C-83.43 355.53 -82.67 355.69 -81.88 355.69C-81.09 355.69 -80.34 355.53 -79.63 355.22C-78.93 354.91 -78.31 354.46 -77.78 353.87C-77.25 353.28 -76.84 352.55 -76.54 351.67C-76.24 350.8 -76.09 349.8 -76.09 348.67C-76.09 347.54 -76.24 346.54 -76.54 345.66C-76.84 344.78 -77.25 344.05 -77.78 343.45C-78.31 342.85 -78.93 342.39 -79.63 342.08C-80.34 341.77 -81.09 341.61 -81.88 341.61C-82.67 341.61 -83.43 341.77 -84.13 342.08C-84.84 342.39 -85.46 342.85 -85.99 343.45C-86.52 344.05 -86.93 344.78 -87.23 345.66C-87.53 346.54 -87.68 347.54 -87.68 348.67C-87.68 349.8 -87.53 350.8 -87.23 351.67Z" />
			<path id="&lt;Compound Path&gt;" class="shp3" d="M-66.47 339.34L-66.47 343.27L-66.4 343.27C-65.66 341.75 -64.75 340.64 -63.67 339.92C-62.59 339.2 -61.22 338.87 -59.56 338.91L-59.56 342.15C-60.79 342.15 -61.83 342.32 -62.69 342.66C-63.56 342.99 -64.26 343.48 -64.78 344.13C-65.31 344.78 -65.7 345.57 -65.93 346.49C-66.17 347.41 -66.29 348.47 -66.29 349.68L-66.29 357.96L-69.35 357.96L-69.35 339.34L-66.47 339.34Z" />
			<path id="&lt;Compound Path&gt;" class="shp3" d="M-39.8 357.96L-39.8 339.67L-46.42 339.67L-46.42 337.22C-45.56 337.22 -44.72 337.15 -43.9 337.02C-43.09 336.89 -42.35 336.64 -41.69 336.28C-41.03 335.92 -40.47 335.43 -40.02 334.81C-39.56 334.18 -39.25 333.39 -39.08 332.43L-36.74 332.43L-36.74 357.96L-39.8 357.96Z" />
			<path id="&lt;Compound Path&gt;" fill-rule="evenodd" class="shp3" d="M-15.97 336.18C-16.71 335.48 -17.69 335.13 -18.92 335.13C-20.21 335.13 -21.26 335.45 -22.05 336.09C-22.84 336.72 -23.46 337.52 -23.9 338.5C-24.35 339.47 -24.65 340.52 -24.82 341.65C-24.99 342.77 -25.09 343.83 -25.11 344.82L-25.04 344.89C-24.32 343.71 -23.42 342.86 -22.36 342.33C-21.29 341.8 -20.06 341.54 -18.67 341.54C-17.44 341.54 -16.34 341.75 -15.37 342.17C-14.4 342.59 -13.59 343.17 -12.92 343.92C-12.27 344.66 -11.75 345.53 -11.4 346.54C-11.03 347.55 -10.85 348.64 -10.85 349.82C-10.85 350.75 -11 351.73 -11.29 352.73C-11.58 353.74 -12.05 354.66 -12.71 355.49C-13.37 356.32 -14.24 357 -15.34 357.54C-16.43 358.08 -17.78 358.35 -19.39 358.35C-21.28 358.35 -22.81 357.97 -23.96 357.2C-25.11 356.43 -26 355.45 -26.62 354.25C-27.25 353.05 -27.66 351.73 -27.86 350.29C-28.07 348.85 -28.17 347.46 -28.17 346.11C-28.17 344.36 -28.02 342.66 -27.72 341.02C-27.42 339.38 -26.91 337.92 -26.19 336.64C-25.47 335.37 -24.51 334.35 -23.31 333.58C-22.11 332.82 -20.6 332.43 -18.77 332.43C-16.66 332.43 -14.98 332.99 -13.73 334.1C-12.49 335.22 -11.77 336.84 -11.58 338.95L-14.64 338.95C-14.78 337.79 -15.22 336.87 -15.97 336.18ZM-21.51 344.69C-22.16 344.99 -22.71 345.4 -23.17 345.91C-23.62 346.43 -23.96 347.04 -24.19 347.75C-24.42 348.46 -24.53 349.21 -24.53 350C-24.53 350.79 -24.41 351.53 -24.17 352.23C-23.94 352.93 -23.59 353.53 -23.15 354.03C-22.71 354.53 -22.15 354.94 -21.49 355.24C-20.83 355.54 -20.08 355.69 -19.24 355.69C-18.4 355.69 -17.66 355.54 -17.03 355.24C-16.39 354.94 -15.86 354.52 -15.43 353.99C-14.99 353.47 -14.66 352.86 -14.44 352.18C-14.21 351.49 -14.09 350.78 -14.09 350.03C-14.09 349.24 -14.2 348.49 -14.4 347.78C-14.6 347.08 -14.92 346.46 -15.35 345.95C-15.79 345.43 -16.33 345.02 -16.97 344.71C-17.62 344.4 -18.38 344.24 -19.24 344.24C-20.11 344.24 -20.86 344.39 -21.51 344.69Z" />
			<path id="&lt;Compound Path&gt;" fill-rule="evenodd" class="shp3" d="M-4.05 339.34L-4.05 341.87L-3.98 341.87C-3.47 340.83 -2.68 340.08 -1.6 339.62C-0.52 339.15 0.66 338.91 1.96 338.91C3.4 338.91 4.66 339.18 5.72 339.7C6.79 340.23 7.68 340.95 8.39 341.84C9.1 342.74 9.63 343.78 9.99 344.96C10.35 346.14 10.53 347.38 10.53 348.7C10.53 350.02 10.35 351.27 10.01 352.45C9.66 353.63 9.13 354.65 8.42 355.52C7.72 356.4 6.83 357.09 5.76 357.59C4.69 358.1 3.45 358.35 2.03 358.35C1.58 358.35 1.07 358.3 0.5 358.21C-0.06 358.11 -0.62 357.96 -1.17 357.74C-1.72 357.52 -2.25 357.23 -2.74 356.86C-3.23 356.48 -3.64 356.02 -3.98 355.47L-4.05 355.47L-4.05 365.05L-7.11 365.05L-7.11 339.34L-4.05 339.34ZM6.95 345.95C6.72 345.12 6.37 344.38 5.9 343.73C5.43 343.09 4.84 342.57 4.1 342.19C3.37 341.8 2.51 341.61 1.53 341.61C0.5 341.61 -0.38 341.82 -1.1 342.22C-1.82 342.63 -2.41 343.17 -2.86 343.83C-3.32 344.48 -3.65 345.23 -3.85 346.08C-4.06 346.92 -4.16 347.77 -4.16 348.63C-4.16 349.54 -4.05 350.43 -3.84 351.28C-3.62 352.13 -3.28 352.88 -2.81 353.53C-2.34 354.18 -1.74 354.7 -0.99 355.09C-0.25 355.49 0.65 355.69 1.71 355.69C2.76 355.69 3.65 355.48 4.35 355.08C5.06 354.67 5.63 354.13 6.06 353.46C6.5 352.78 6.81 352.01 7 351.15C7.19 350.29 7.29 349.4 7.29 348.49C7.29 347.63 7.17 346.78 6.95 345.95Z" />
			<path id="&lt;Compound Path&gt;" class="shp3" d="M12.65 339.34L16.58 339.34L21.04 345.86L25.68 339.34L29.36 339.34L22.95 347.91L30.15 357.96L26.22 357.96L21.04 350.25L15.86 357.96L12.15 357.96L19.13 348.16L12.65 339.34Z" />
			<path id="&lt;Compound Path&gt;" class="shp3" d="M42.68 346.51L42.68 349.39L32.27 349.39L32.27 346.51L42.68 346.51Z" />
			<path id="&lt;Compound Path&gt;" class="shp3" d="M54.23 357.96L54.23 339.67L47.61 339.67L47.61 337.22C48.47 337.22 49.31 337.15 50.13 337.02C50.94 336.89 51.68 336.64 52.34 336.28C53 335.92 53.56 335.43 54.02 334.81C54.47 334.18 54.78 333.39 54.95 332.43L57.29 332.43L57.29 357.96L54.23 357.96Z" />
			<path id="&lt;Compound Path&gt;" class="shp3" d="M66.47 337.87C66.81 336.76 67.33 335.81 68.04 335C68.75 334.2 69.63 333.57 70.68 333.12C71.74 332.66 72.94 332.43 74.28 332.43C75.39 332.43 76.43 332.59 77.4 332.92C78.37 333.24 79.22 333.71 79.93 334.32C80.66 334.93 81.23 335.7 81.64 336.61C82.06 337.52 82.28 338.58 82.28 339.77C82.28 340.9 82.1 341.9 81.75 342.76C81.4 343.63 80.94 344.4 80.37 345.09C79.79 345.77 79.13 346.39 78.39 346.94C77.64 347.49 76.88 348.02 76.08 348.52C75.29 349 74.5 349.48 73.71 349.95C72.92 350.41 72.19 350.91 71.53 351.44C70.87 351.97 70.31 352.54 69.84 353.15C69.37 353.76 69.06 354.46 68.92 355.25L82.02 355.25L82.02 357.96L65.36 357.96C65.48 356.44 65.75 355.15 66.17 354.09C66.58 353.02 67.12 352.09 67.77 351.29C68.42 350.5 69.15 349.81 69.96 349.21C70.78 348.61 71.63 348.04 72.52 347.51C73.6 346.84 74.55 346.22 75.36 345.66C76.18 345.1 76.86 344.53 77.4 343.95C77.94 343.38 78.35 342.75 78.62 342.08C78.9 341.41 79.04 340.63 79.04 339.74C79.04 339.04 78.9 338.41 78.64 337.85C78.38 337.29 78.02 336.8 77.58 336.39C77.13 335.98 76.61 335.67 76.01 335.46C75.41 335.24 74.77 335.13 74.1 335.13C73.21 335.13 72.45 335.32 71.82 335.69C71.18 336.06 70.66 336.55 70.25 337.15C69.84 337.75 69.55 338.43 69.37 339.18C69.19 339.94 69.11 340.7 69.13 341.47L66.07 341.47C66 340.17 66.13 338.97 66.47 337.87Z" />
			<path id="&lt;Compound Path&gt;" fill-rule="evenodd" class="shp3" d="M86.09 342.51C86.14 341.5 86.26 340.52 86.45 339.56C86.64 338.6 86.92 337.69 87.28 336.82C87.64 335.96 88.13 335.2 88.76 334.56C89.38 333.91 90.17 333.39 91.11 333.01C92.06 332.63 93.2 332.43 94.52 332.43C95.84 332.43 96.97 332.63 97.92 333.01C98.87 333.39 99.65 333.91 100.28 334.56C100.9 335.2 101.39 335.96 101.75 336.82C102.11 337.69 102.39 338.6 102.58 339.56C102.77 340.52 102.89 341.5 102.94 342.51C102.99 343.52 103.01 344.49 103.01 345.43C103.01 346.37 102.99 347.34 102.94 348.34C102.89 349.35 102.77 350.34 102.58 351.29C102.39 352.25 102.11 353.16 101.75 354.01C101.39 354.87 100.9 355.62 100.28 356.26C99.65 356.91 98.87 357.42 97.94 357.79C97 358.17 95.86 358.35 94.52 358.35C93.2 358.35 92.06 358.17 91.11 357.79C90.17 357.42 89.38 356.91 88.76 356.26C88.13 355.62 87.64 354.87 87.28 354.01C86.92 353.16 86.64 352.25 86.45 351.29C86.26 350.34 86.14 349.35 86.09 348.34C86.04 347.34 86.02 346.37 86.02 345.43C86.02 344.49 86.04 343.52 86.09 342.51ZM89.35 348.62C89.41 349.8 89.6 350.92 89.93 351.96C90.25 353 90.77 353.89 91.49 354.61C92.21 355.33 93.22 355.69 94.52 355.69C95.81 355.69 96.82 355.33 97.54 354.61C98.26 353.89 98.78 353 99.11 351.96C99.43 350.92 99.62 349.8 99.68 348.62C99.74 347.43 99.77 346.35 99.77 345.39C99.77 344.77 99.77 344.08 99.75 343.32C99.74 342.57 99.68 341.81 99.57 341.05C99.47 340.3 99.31 339.56 99.11 338.84C98.9 338.12 98.6 337.49 98.21 336.95C97.81 336.41 97.31 335.97 96.71 335.64C96.11 335.3 95.38 335.13 94.52 335.13C93.65 335.13 92.92 335.3 92.32 335.64C91.72 335.97 91.22 336.41 90.83 336.95C90.43 337.49 90.13 338.12 89.93 338.84C89.72 339.56 89.57 340.3 89.46 341.05C89.35 341.81 89.29 342.57 89.28 343.32C89.27 344.08 89.26 344.77 89.26 345.39C89.26 346.35 89.29 347.43 89.35 348.62Z" />
			<path id="&lt;Compound Path&gt;" fill-rule="evenodd" class="shp3" d="M110 339.34L110 341.87L110.07 341.87C110.57 340.83 111.36 340.08 112.44 339.62C113.52 339.15 114.71 338.91 116.01 338.91C117.45 338.91 118.7 339.18 119.77 339.7C120.84 340.23 121.73 340.95 122.43 341.84C123.14 342.74 123.67 343.78 124.04 344.96C124.4 346.14 124.58 347.38 124.58 348.7C124.58 350.02 124.4 351.27 124.05 352.45C123.71 353.63 123.18 354.65 122.47 355.52C121.76 356.4 120.87 357.09 119.81 357.59C118.74 358.1 117.5 358.35 116.08 358.35C115.62 358.35 115.11 358.3 114.55 358.21C113.99 358.11 113.43 357.96 112.88 357.74C112.32 357.52 111.8 357.23 111.31 356.86C110.82 356.48 110.4 356.02 110.07 355.47L110 355.47L110 365.05L106.94 365.05L106.94 339.34L110 339.34ZM120.99 345.95C120.77 345.12 120.42 344.38 119.95 343.73C119.48 343.09 118.88 342.57 118.15 342.19C117.42 341.8 116.56 341.61 115.58 341.61C114.54 341.61 113.67 341.82 112.95 342.22C112.23 342.63 111.64 343.17 111.18 343.83C110.73 344.48 110.4 345.23 110.19 346.08C109.99 346.92 109.89 347.77 109.89 348.63C109.89 349.54 110 350.43 110.21 351.28C110.43 352.13 110.77 352.88 111.24 353.53C111.71 354.18 112.31 354.7 113.06 355.09C113.8 355.49 114.7 355.69 115.76 355.69C116.81 355.69 117.69 355.48 118.4 355.08C119.11 354.67 119.68 354.13 120.11 353.46C120.54 352.78 120.86 352.01 121.05 351.15C121.24 350.29 121.34 349.4 121.34 348.49C121.34 347.63 121.22 346.78 120.99 345.95Z" />
			<path id="&lt;Compound Path&gt;" class="shp3" d="M126.7 339.34L130.62 339.34L135.09 345.86L139.73 339.34L143.4 339.34L137 347.91L144.19 357.96L140.27 357.96L135.09 350.25L129.9 357.96L126.19 357.96L133.18 348.16L126.7 339.34Z" />
		</g>
		<g id="&lt;Group&gt;">
			<path id="&lt;Compound Path&gt;" class="shp3" d="M598.9 289.05L598.9 311.87L612.51 311.87L612.51 314.75L595.48 314.75L595.48 289.05L598.9 289.05Z" />
			<path id="&lt;Compound Path&gt;" fill-rule="evenodd" class="shp3" d="M629.28 315.15C628.49 315.15 627.86 314.93 627.39 314.48C626.92 314.04 626.69 313.31 626.69 312.3C625.85 313.31 624.87 314.04 623.76 314.48C622.64 314.93 621.43 315.15 620.14 315.15C619.3 315.15 618.51 315.06 617.76 314.88C617.02 314.7 616.36 314.4 615.8 313.98C615.24 313.56 614.79 313.02 614.47 312.36C614.14 311.7 613.98 310.9 613.98 309.96C613.98 308.91 614.16 308.05 614.52 307.37C614.88 306.7 615.36 306.16 615.94 305.74C616.53 305.31 617.2 305 617.96 304.78C618.72 304.56 619.49 304.38 620.28 304.24C621.12 304.07 621.92 303.95 622.68 303.86C623.43 303.78 624.1 303.66 624.67 303.5C625.25 303.35 625.71 303.12 626.04 302.82C626.38 302.52 626.55 302.08 626.55 301.51C626.55 300.83 626.42 300.29 626.17 299.88C625.92 299.48 625.59 299.17 625.2 298.95C624.8 298.73 624.36 298.59 623.86 298.52C623.37 298.44 622.89 298.41 622.41 298.41C621.11 298.41 620.03 298.66 619.17 299.14C618.3 299.64 617.83 300.57 617.76 301.94L614.7 301.94C614.75 300.79 614.99 299.81 615.42 299.02C615.85 298.23 616.43 297.59 617.15 297.09C617.87 296.6 618.7 296.25 619.63 296.03C620.57 295.82 621.56 295.71 622.59 295.71C623.43 295.71 624.26 295.77 625.09 295.89C625.92 296.01 626.67 296.26 627.34 296.63C628.01 297 628.55 297.52 628.96 298.19C629.37 298.86 629.57 299.74 629.57 300.82L629.57 310.39C629.57 311.12 629.61 311.64 629.7 311.98C629.78 312.32 630.06 312.49 630.54 312.49C630.81 312.49 631.12 312.42 631.48 312.3L631.48 314.68C630.95 314.99 630.22 315.15 629.28 315.15ZM625 305.77C624.37 305.9 623.72 306.01 623.04 306.09C622.35 306.18 621.66 306.28 620.97 306.38C620.27 306.49 619.64 306.67 619.09 306.9C618.54 307.14 618.09 307.49 617.75 307.93C617.39 308.37 617.23 308.98 617.23 309.75C617.23 310.25 617.32 310.68 617.53 311.03C617.73 311.37 618 311.65 618.32 311.87C618.64 312.09 619.03 312.25 619.48 312.34C619.92 312.44 620.37 312.49 620.82 312.49C621.83 312.49 622.69 312.35 623.42 312.07C624.13 311.8 624.72 311.45 625.18 311.03C625.63 310.61 625.97 310.15 626.19 309.66C626.4 309.17 626.51 308.7 626.51 308.27L626.51 305.14C626.13 305.43 625.62 305.64 625 305.77Z" />
			<path id="&lt;Compound Path&gt;" class="shp3" d="M637.09 296.14L637.09 300.06L637.16 300.06C637.91 298.55 638.82 297.44 639.9 296.72C640.98 296 642.35 295.66 644.01 295.71L644.01 298.95C642.78 298.95 641.74 299.12 640.87 299.45C640.01 299.79 639.31 300.28 638.79 300.93C638.26 301.58 637.87 302.36 637.63 303.29C637.39 304.21 637.28 305.27 637.28 306.47L637.28 314.75L634.21 314.75L634.21 296.14L637.09 296.14Z" />
			<path id="&lt;Compound Path&gt;" fill-rule="evenodd" class="shp3" d="M659.27 320.01C657.88 321.52 655.69 322.28 652.72 322.28C651.85 322.28 650.98 322.18 650.07 321.99C649.17 321.8 648.36 321.49 647.62 321.05C646.89 320.62 646.29 320.06 645.81 319.36C645.33 318.66 645.06 317.81 645.02 316.8L648.07 316.8C648.1 317.36 648.27 317.82 648.6 318.21C648.92 318.59 649.32 318.9 649.79 319.14C650.25 319.38 650.76 319.56 651.31 319.67C651.87 319.78 652.39 319.83 652.9 319.83C653.91 319.83 654.76 319.65 655.45 319.31C656.15 318.96 656.73 318.48 657.18 317.87C657.64 317.26 657.97 316.52 658.17 315.65C658.38 314.79 658.48 313.84 658.48 312.81L658.48 311.58L658.41 311.58C657.88 312.74 657.08 313.58 656.01 314.12C654.94 314.66 653.81 314.93 652.61 314.93C651.22 314.93 650.01 314.68 648.98 314.18C647.94 313.67 647.08 313 646.38 312.14C645.69 311.29 645.16 310.3 644.82 309.15C644.47 308.02 644.3 306.81 644.3 305.54C644.3 304.43 644.44 303.3 644.73 302.13C645.02 300.97 645.5 299.92 646.17 298.97C646.84 298.02 647.73 297.24 648.83 296.63C649.93 296.02 651.29 295.71 652.9 295.71C654.07 295.71 655.15 295.97 656.14 296.48C657.12 297 657.89 297.77 658.44 298.8L658.48 298.8L658.48 296.14L661.36 296.14L661.36 313.17C661.36 316.22 660.66 318.5 659.27 320.01ZM655.36 311.64C656.07 311.22 656.64 310.67 657.07 309.98C657.51 309.3 657.82 308.53 658.03 307.66C658.23 306.8 658.33 305.93 658.33 305.07C658.33 304.25 658.24 303.45 658.05 302.65C657.85 301.86 657.55 301.15 657.13 300.52C656.71 299.88 656.16 299.37 655.49 298.99C654.82 298.6 654 298.41 653.04 298.41C652.06 298.41 651.22 298.59 650.52 298.97C649.83 299.34 649.26 299.84 648.81 300.46C648.37 301.08 648.05 301.8 647.84 302.62C647.64 303.44 647.54 304.29 647.54 305.18C647.54 306.02 647.62 306.86 647.79 307.7C647.95 308.54 648.24 309.3 648.65 309.98C649.06 310.67 649.6 311.22 650.27 311.64C650.94 312.06 651.78 312.27 652.79 312.27C653.8 312.27 654.65 312.06 655.36 311.64Z" />
			<path id="&lt;Compound Path&gt;" fill-rule="evenodd" class="shp3" d="M679.14 313.56C677.75 314.62 676 315.15 673.89 315.15C672.4 315.15 671.11 314.91 670.02 314.43C668.92 313.95 668.01 313.28 667.26 312.41C666.52 311.55 665.96 310.52 665.59 309.32C665.22 308.12 665.01 306.81 664.96 305.39C664.96 303.98 665.17 302.68 665.61 301.51C666.04 300.33 666.64 299.31 667.42 298.44C668.2 297.58 669.13 296.91 670.2 296.43C671.26 295.95 672.43 295.71 673.71 295.71C675.36 295.71 676.74 296.05 677.83 296.74C678.92 297.42 679.8 298.29 680.46 299.34C681.12 300.4 681.57 301.55 681.82 302.8C682.08 304.05 682.18 305.24 682.13 306.36L668.2 306.36C668.17 307.18 668.27 307.95 668.49 308.69C668.7 309.42 669.05 310.07 669.53 310.63C670.01 311.19 670.62 311.64 671.37 311.98C672.11 312.32 672.99 312.49 673.99 312.49C675.29 312.49 676.35 312.18 677.18 311.58C678.01 310.99 678.56 310.07 678.82 308.85L681.84 308.85C681.43 310.94 680.54 312.51 679.14 313.56ZM678.4 301.61C678.13 300.96 677.76 300.4 677.29 299.94C676.82 299.47 676.27 299.1 675.63 298.82C675 298.55 674.3 298.41 673.53 298.41C672.73 298.41 672.02 298.55 671.38 298.82C670.75 299.1 670.2 299.48 669.75 299.96C669.29 300.44 668.93 301 668.66 301.63C668.4 302.27 668.25 302.94 668.2 303.67L678.89 303.67C678.84 302.94 678.68 302.26 678.4 301.61Z" />
			<path id="&lt;Compound Path&gt;" class="shp3" d="M688.07 296.14L688.07 300.06L688.14 300.06C688.89 298.55 689.8 297.44 690.88 296.72C691.96 296 693.33 295.66 694.98 295.71L694.98 298.95C693.76 298.95 692.71 299.12 691.85 299.45C690.99 299.79 690.29 300.28 689.76 300.93C689.23 301.58 688.85 302.36 688.61 303.29C688.37 304.21 688.25 305.27 688.25 306.47L688.25 314.75L685.19 314.75L685.19 296.14L688.07 296.14Z" />
			<path id="&lt;Compound Path&gt;" class="shp3" d="M546.77 342.04L546.77 339.34L549.9 339.34L549.9 336.57C549.9 335.06 550.34 333.91 551.22 333.13C552.09 332.35 553.37 331.96 555.05 331.96C555.34 331.96 555.67 331.99 556.04 332.03C556.41 332.08 556.74 332.15 557.03 332.25L557.03 334.91C556.77 334.82 556.48 334.75 556.17 334.71C555.85 334.68 555.57 334.66 555.3 334.66C554.56 334.66 553.98 334.8 553.57 335.09C553.17 335.38 552.97 335.93 552.97 336.75L552.97 339.34L556.56 339.34L556.56 342.04L552.97 342.04L552.97 357.95L549.9 357.95L549.9 342.04L546.77 342.04Z" />
			<path id="&lt;Compound Path&gt;" fill-rule="evenodd" class="shp3" d="M558.87 344.83C559.25 343.64 559.83 342.61 560.59 341.74C561.36 340.86 562.31 340.17 563.44 339.66C564.57 339.16 565.86 338.91 567.33 338.91C568.81 338.91 570.12 339.16 571.23 339.66C572.35 340.17 573.29 340.86 574.06 341.74C574.83 342.61 575.4 343.64 575.79 344.83C576.17 346.02 576.36 347.3 576.36 348.66C576.36 350.03 576.17 351.3 575.79 352.48C575.4 353.65 574.83 354.68 574.06 355.56C573.29 356.43 572.35 357.12 571.23 357.61C570.12 358.1 568.81 358.35 567.33 358.35C565.86 358.35 564.57 358.1 563.44 357.61C562.31 357.12 561.36 356.43 560.59 355.56C559.83 354.68 559.25 353.65 558.87 352.48C558.48 351.3 558.29 350.03 558.29 348.66C558.29 347.3 558.48 346.02 558.87 344.83ZM561.98 351.67C562.28 352.55 562.69 353.28 563.23 353.87C563.75 354.45 564.37 354.9 565.08 355.22C565.79 355.53 566.54 355.68 567.33 355.68C568.12 355.68 568.87 355.53 569.58 355.22C570.29 354.9 570.9 354.45 571.43 353.87C571.96 353.28 572.37 352.55 572.67 351.67C572.98 350.8 573.12 349.79 573.12 348.66C573.12 347.54 572.98 346.54 572.67 345.66C572.37 344.78 571.96 344.05 571.43 343.44C570.9 342.84 570.29 342.39 569.58 342.08C568.87 341.77 568.12 341.61 567.33 341.61C566.54 341.61 565.79 341.77 565.08 342.08C564.37 342.39 563.75 342.84 563.23 343.44C562.69 344.05 562.28 344.78 561.98 345.66C561.68 346.54 561.53 347.54 561.53 348.66C561.53 349.79 561.68 350.8 561.98 351.67Z" />
			<path id="&lt;Compound Path&gt;" class="shp3" d="M582.74 339.34L582.74 343.27L582.81 343.27C583.55 341.75 584.47 340.63 585.54 339.91C586.62 339.2 587.99 338.86 589.65 338.91L589.65 342.15C588.42 342.15 587.38 342.32 586.52 342.65C585.65 342.99 584.95 343.48 584.43 344.13C583.9 344.78 583.52 345.56 583.28 346.49C583.04 347.41 582.92 348.47 582.92 349.67L582.92 357.95L579.85 357.95L579.85 339.34L582.74 339.34Z" />
			<path id="&lt;Compound Path&gt;" class="shp3" d="M609.41 357.95L609.41 339.66L602.79 339.66L602.79 337.22C603.65 337.22 604.49 337.15 605.31 337.02C606.12 336.88 606.86 336.64 607.52 336.28C608.18 335.92 608.74 335.43 609.19 334.8C609.65 334.18 609.96 333.39 610.13 332.43L612.47 332.43L612.47 357.95L609.41 357.95Z" />
			<path id="&lt;Compound Path&gt;" class="shp3" d="M621.65 337.86C621.99 336.76 622.51 335.81 623.22 335C623.92 334.2 624.81 333.57 625.86 333.11C626.92 332.66 628.12 332.43 629.47 332.43C630.57 332.43 631.6 332.59 632.58 332.91C633.55 333.24 634.4 333.71 635.11 334.32C635.83 334.93 636.41 335.69 636.82 336.6C637.25 337.52 637.46 338.57 637.46 339.77C637.46 340.9 637.28 341.89 636.93 342.76C636.58 343.62 636.12 344.4 635.55 345.08C634.97 345.77 634.31 346.38 633.57 346.94C632.82 347.49 632.06 348.02 631.26 348.52C630.47 349 629.68 349.47 628.89 349.94C628.09 350.41 627.37 350.91 626.71 351.44C626.05 351.96 625.49 352.54 625.02 353.14C624.55 353.76 624.24 354.46 624.1 355.25L637.21 355.25L637.21 357.95L620.54 357.95C620.66 356.44 620.92 355.15 621.34 354.08C621.77 353.02 622.3 352.08 622.95 351.29C623.59 350.5 624.33 349.8 625.14 349.2C625.96 348.6 626.81 348.04 627.7 347.51C628.78 346.84 629.73 346.22 630.54 345.66C631.36 345.09 632.04 344.53 632.58 343.95C633.12 343.37 633.53 342.75 633.8 342.08C634.08 341.4 634.22 340.62 634.22 339.74C634.22 339.04 634.08 338.41 633.82 337.85C633.56 337.28 633.2 336.8 632.76 336.39C632.31 335.98 631.79 335.67 631.19 335.45C630.59 335.24 629.95 335.13 629.28 335.13C628.39 335.13 627.63 335.31 627 335.69C626.36 336.06 625.84 336.55 625.43 337.14C625.02 337.75 624.73 338.42 624.55 339.18C624.37 339.93 624.29 340.7 624.31 341.46L621.26 341.46C621.18 340.17 621.31 338.97 621.65 337.86Z" />
			<path id="&lt;Compound Path&gt;" fill-rule="evenodd" class="shp3" d="M641.27 342.51C641.32 341.5 641.44 340.52 641.63 339.56C641.82 338.6 642.1 337.68 642.46 336.82C642.82 335.96 643.31 335.2 643.93 334.55C644.56 333.9 645.34 333.39 646.29 333.01C647.24 332.62 648.37 332.43 649.69 332.43C651.02 332.43 652.15 332.62 653.1 333.01C654.05 333.39 654.83 333.9 655.45 334.55C656.08 335.2 656.57 335.96 656.93 336.82C657.29 337.68 657.57 338.6 657.76 339.56C657.95 340.52 658.07 341.5 658.12 342.51C658.17 343.52 658.19 344.49 658.19 345.42C658.19 346.36 658.17 347.33 658.12 348.34C658.07 349.35 657.95 350.33 657.76 351.29C657.57 352.25 657.29 353.16 656.93 354.01C656.57 354.86 656.08 355.61 655.45 356.26C654.83 356.91 654.05 357.42 653.11 357.79C652.18 358.16 651.04 358.35 649.69 358.35C648.37 358.35 647.24 358.16 646.29 357.79C645.34 357.42 644.56 356.91 643.93 356.26C643.31 355.61 642.82 354.86 642.46 354.01C642.1 353.16 641.82 352.25 641.63 351.29C641.44 350.33 641.32 349.35 641.27 348.34C641.22 347.33 641.2 346.36 641.2 345.42C641.2 344.49 641.22 343.52 641.27 342.51ZM644.53 348.61C644.59 349.8 644.78 350.91 645.1 351.96C645.43 353 645.95 353.88 646.67 354.6C647.39 355.32 648.4 355.68 649.69 355.68C650.99 355.68 652 355.32 652.72 354.6C653.44 353.88 653.96 353 654.29 351.96C654.61 350.91 654.8 349.8 654.86 348.61C654.92 347.42 654.95 346.35 654.95 345.39C654.95 344.77 654.94 344.07 654.93 343.32C654.92 342.56 654.86 341.81 654.75 341.05C654.64 340.3 654.49 339.56 654.29 338.84C654.08 338.12 653.78 337.49 653.38 336.95C652.99 336.4 652.49 335.97 651.89 335.63C651.29 335.3 650.56 335.13 649.69 335.13C648.83 335.13 648.1 335.3 647.5 335.63C646.9 335.97 646.4 336.4 646.01 336.95C645.61 337.49 645.31 338.12 645.1 338.84C644.9 339.56 644.75 340.3 644.64 341.05C644.53 341.81 644.47 342.56 644.46 343.32C644.44 344.07 644.44 344.77 644.44 345.39C644.44 346.35 644.47 347.42 644.53 348.61Z" />
			<path id="&lt;Compound Path&gt;" fill-rule="evenodd" class="shp3" d="M665.17 339.34L665.17 341.86L665.25 341.86C665.75 340.83 666.54 340.08 667.62 339.61C668.7 339.14 669.89 338.91 671.19 338.91C672.63 338.91 673.88 339.17 674.95 339.7C676.02 340.23 676.9 340.94 677.61 341.84C678.32 342.74 678.85 343.78 679.21 344.96C679.57 346.13 679.76 347.38 679.76 348.7C679.76 350.02 679.58 351.27 679.23 352.44C678.88 353.62 678.36 354.64 677.65 355.52C676.94 356.4 676.05 357.09 674.99 357.59C673.91 358.1 672.67 358.35 671.26 358.35C670.8 358.35 670.29 358.3 669.73 358.2C669.16 358.11 668.61 357.95 668.06 357.74C667.5 357.52 666.98 357.23 666.49 356.85C666 356.48 665.58 356.02 665.25 355.47L665.17 355.47L665.17 365.05L662.11 365.05L662.11 339.34L665.17 339.34ZM676.17 345.95C675.94 345.12 675.6 344.38 675.13 343.73C674.66 343.08 674.06 342.57 673.33 342.18C672.6 341.8 671.74 341.61 670.76 341.61C669.72 341.61 668.85 341.81 668.13 342.22C667.4 342.63 666.82 343.16 666.36 343.82C665.9 344.48 665.58 345.23 665.37 346.07C665.17 346.91 665.07 347.77 665.07 348.63C665.07 349.54 665.17 350.42 665.39 351.28C665.61 352.13 665.95 352.88 666.41 353.53C666.88 354.17 667.49 354.69 668.24 355.09C668.98 355.49 669.88 355.68 670.93 355.68C671.99 355.68 672.87 355.48 673.58 355.07C674.29 354.67 674.86 354.12 675.29 353.45C675.72 352.78 676.04 352.01 676.23 351.15C676.42 350.29 676.52 349.39 676.52 348.49C676.52 347.62 676.4 346.78 676.17 345.95Z" />
			<path id="&lt;Compound Path&gt;" class="shp3" d="M681.88 339.34L685.8 339.34L690.26 345.86L694.91 339.34L698.58 339.34L692.17 347.91L699.37 357.95L695.45 357.95L690.26 350.25L685.08 357.95L681.37 357.95L688.36 348.16L681.88 339.34Z" />
			<path id="&lt;Compound Path&gt;" class="shp3" d="M729.58 347.62L729.58 350.07L721.73 350.07L721.73 357.95L719.28 357.95L719.28 350.07L711.43 350.07L711.43 347.62L719.28 347.62L719.28 339.74L721.73 339.74L721.73 347.62L729.58 347.62Z" />
		</g>
	</g>
</svg>